<?xml version="1.0" encoding="UTF-8"?>
<svg xmlns="http://www.w3.org/2000/svg" xmlns:xlink="http://www.w3.org/1999/xlink" width="193pt" height="193pt" viewBox="0 0 193 193" version="1.1">
<g id="surface1">
<path style=" stroke:none;fill-rule:evenodd;fill:rgb(100%,100%,100%);fill-opacity:1;" d="M 0 0.242188 L 192.757813 0.242188 L 192.757813 193 L 0 193 L 0 0.242188 "/>
<path style=" stroke:none;fill-rule:evenodd;fill:rgb(40.79895%,25.898743%,52.89917%);fill-opacity:1;" d="M 29.898438 15.148438 C 35.265625 19.089844 41.96875 17.574219 45.597656 12.871094 C 38.355469 26.160156 40.339844 35.671875 40.480469 43.820313 C 43.167969 44.78125 48.59375 44.921875 49.800781 43.882813 C 51.210938 40.53125 51.90625 19.550781 49.011719 16.402344 C 52.167969 16.507813 54.890625 16.097656 56.976563 14.921875 C 55.234375 33.039063 52.53125 59.101563 59.933594 67.746094 C 55.6875 64.75 51.441406 63.578125 47.191406 64.074219 C 48.027344 58.6875 48.9375 53.074219 49.769531 47.691406 C 47.875 46.917969 45.144531 46.628906 40.820313 46.664063 C 41.632813 52.964844 42.199219 59.292969 44.234375 65.4375 C 39.664063 66.632813 35.617188 68.785156 32.058594 70.785156 C 36.273438 57.984375 32.703125 35.902344 29.898438 15.148438 "/>
<path style=" stroke:none;fill-rule:evenodd;fill:rgb(40.79895%,25.898743%,52.89917%);fill-opacity:1;" d="M 58.230469 60.320313 C 63.5625 49.234375 66.59375 34.476563 70.402344 20.953125 C 68.46875 17.9375 66.535156 14.34375 64.601563 10.824219 C 67.738281 13.496094 71.179688 15.921875 77.003906 16.402344 C 78.605469 31.625 79.171875 47.472656 85.878906 59.636719 C 81.925781 60.226563 77.914063 60.628906 74.953125 64.1875 C 75.660156 58.460938 76.386719 52.789063 75.863281 43.367188 C 72.652344 42.980469 69.164063 42.21875 66.761719 42.910156 C 65.753906 48.425781 64.320313 56.546875 66.078125 58.726563 C 63.460938 59.257813 60.84375 59.789063 58.230469 60.320313 Z M 71.085938 23.796875 C 69.703125 26.570313 68.582031 33.027344 67.445313 39.269531 C 69.675781 40.234375 72.207031 40.589844 75.410156 39.613281 C 74.25 34.28125 73.632813 28.847656 71.085938 23.796875 "/>
<path style=" stroke:none;fill-rule:evenodd;fill:rgb(40.79895%,25.898743%,52.89917%);fill-opacity:1;" d="M 83.941406 66.351563 C 92.511719 56.074219 87.988281 34.785156 85.761719 17.425781 C 97.210938 17.726563 104.695313 21.164063 107.394531 27.539063 C 109.5 32.507813 108.429688 38.914063 105.214844 43.179688 C 102.1875 47.203125 97.824219 47.855469 94.636719 48.601563 C 94.675781 53.480469 94.566406 58.3125 95.546875 63.503906 C 91.851563 63.941406 87.945313 65.003906 83.941406 66.351563 Z M 94.523438 23.683594 C 94.410156 31.269531 94.296875 38.851563 94.183594 46.4375 C 95.675781 46.300781 97.167969 45.972656 98.664063 45.316406 C 101.785156 43.949219 103.054688 42.160156 104.242188 39.015625 C 105.703125 35.15625 106.046875 30.882813 103.53125 27.425781 C 101.746094 24.960938 98.871094 23.585938 94.523438 23.683594 "/>
<path style=" stroke:none;fill-rule:evenodd;fill:rgb(40.79895%,25.898743%,52.89917%);fill-opacity:1;" d="M 107.496094 16.628906 C 115.8125 16.90625 122.082031 18.324219 125.359375 21.40625 C 126.390625 22.289063 127.316406 23.207031 128.117188 24.167969 C 133.226563 30.300781 131.011719 39.996094 125.367188 45.054688 C 122.730469 47.414063 120.046875 47.378906 117.308594 48.363281 C 118 54.765625 118.40625 61.511719 121.488281 66.121094 C 117.898438 64.546875 114.414063 62.550781 109.769531 62.339844 C 109.859375 47.492188 112.820313 33.28125 107.496094 16.628906 Z M 115.914063 23.113281 C 115.660156 30.738281 116.496094 38.359375 117.054688 45.984375 C 119.667969 45.140625 122.332031 44.433594 124.484375 42.335938 C 127.367188 39.523438 128.074219 35.914063 127.828125 32.054688 C 127.558594 27.855469 124.734375 23.796875 120.460938 23.050781 C 119.222656 22.835938 117.738281 22.828125 115.914063 23.113281 "/>
<path style=" stroke:none;fill-rule:evenodd;fill:rgb(40.79895%,25.898743%,52.89917%);fill-opacity:1;" d="M 128.546875 20.953125 C 131.53125 22 134.617188 22.960938 140.71875 21.179688 C 141.800781 33.503906 143.6875 41.101563 146.171875 43.339844 C 150.476563 38.605469 157.019531 29.117188 156.648438 20.953125 C 158.007813 22.863281 159.804688 24.25 162.566406 24.480469 C 155.417969 32.941406 146.140625 42.675781 145.140625 54.296875 C 144.84375 57.71875 144.984375 61.285156 146.3125 65.335938 C 142.601563 64.601563 139.433594 65.472656 136.28125 67.261719 C 138.21875 59.972656 139.105469 51.949219 140.9375 44.03125 C 137.050781 36.148438 131.785156 29.003906 128.546875 20.953125 "/>
<path style=" stroke:none;fill-rule:evenodd;fill:rgb(40.79895%,25.898743%,52.89917%);fill-opacity:1;" d="M 33.515625 79.34375 C 55.097656 78.320313 65.683594 77.769531 71.882813 75.519531 C 71.902344 79.144531 71.535156 83.257813 73.109375 84.941406 C 68.46875 84.621094 63.828125 84.441406 59.183594 84.121094 C 56.390625 102.535156 57.445313 118.824219 62.597656 126.585938 C 58.011719 123.945313 53.210938 123.035156 48.261719 123.308594 C 52.089844 110.964844 53.628906 95.800781 52.359375 83.984375 C 47.078125 83.984375 40.84375 83.03125 36.109375 85.214844 C 36.976563 82.824219 35.566406 81.003906 33.515625 79.34375 "/>
<path style=" stroke:none;fill-rule:evenodd;fill:rgb(40.79895%,25.898743%,52.89917%);fill-opacity:1;" d="M 74.066406 72.105469 C 77.363281 81.910156 77.304688 94.472656 75.976563 117.4375 C 80.074219 118.234375 83.941406 119.371094 87.3125 121.261719 C 85.261719 116.011719 82.753906 105.039063 83.351563 103.238281 C 85.171875 103.148438 86.355469 102.738281 87.449219 102.28125 C 89.84375 107.792969 93.074219 113.027344 93.046875 119.347656 C 95.070313 118.027344 97.347656 117.710938 99.734375 117.847656 C 95.957031 113.023438 92.40625 107.742188 89.359375 101.460938 C 93.046875 99.527344 95.820313 96.796875 96.59375 92.3125 C 97.949219 87.136719 96.925781 82.609375 94.273438 78.523438 C 89.0625 73.449219 82.28125 72.628906 74.066406 72.105469 Z M 81.984375 80.074219 C 82.394531 87.175781 82.804688 93.953125 83.214844 101.050781 C 88.695313 101.414063 92.90625 97.695313 93.832031 92.5625 C 94.722656 87.625 93.550781 82.28125 88.347656 80.570313 C 86.199219 79.867188 83.65625 79.515625 81.984375 80.074219 "/>
<path style=" stroke:none;fill-rule:evenodd;fill:rgb(40.79895%,25.898743%,52.89917%);fill-opacity:1;" d="M 97.003906 71.5625 C 109.371094 73.449219 117.726563 73.546875 120.214844 71.015625 C 119.421875 73.972656 118.988281 76.929688 118.714844 79.890625 C 116.632813 76.628906 111.425781 75.550781 104.925781 75.929688 C 104.789063 79.933594 104.652344 83.941406 104.515625 87.945313 C 111.84375 89.605469 114.703125 88.597656 114.753906 83.984375 C 114.953125 87.300781 115.019531 90.921875 115.75 93.972656 C 113.679688 91.152344 113.320313 90.066406 109.957031 89.960938 C 108.195313 89.902344 106.421875 89.808594 104.691406 89.835938 C 104.425781 97.300781 105.914063 104.863281 108.277344 109.011719 C 112.902344 108.828125 117.167969 108.339844 119.671875 103.648438 C 120.234375 106.742188 120.085938 109.835938 121.992188 112.929688 C 114.199219 111.960938 106.613281 111.546875 99.597656 112.65625 C 100.113281 98.960938 103.851563 85.261719 97.003906 71.5625 "/>
<path style=" stroke:none;fill-rule:evenodd;fill:rgb(40.79895%,25.898743%,52.89917%);fill-opacity:1;" d="M 124.457031 74.574219 C 126.761719 87.902344 128.890625 107.953125 121.878906 119.640625 C 132.636719 116.523438 146.113281 114.464844 150.160156 116.941406 C 149.210938 114.199219 148.59375 111.03125 148.128906 107.804688 C 147.164063 111.386719 144.203125 115.605469 131.316406 115.363281 C 130.492188 110.425781 131.09375 103.941406 130.980469 97.941406 C 134.148438 97.292969 143.292969 94.472656 143.425781 102.796875 C 144.09375 98.953125 144.183594 95.109375 143.878906 91.265625 C 142.679688 93.453125 142.023438 95.515625 139.40625 95.515625 C 136.550781 95.515625 133.6875 95.515625 130.828125 95.515625 C 131.425781 90.183594 132.828125 85.121094 134.167969 80.035156 C 137.355469 79.828125 142.058594 81.03125 150.101563 85.925781 C 149.503906 82.738281 150.363281 79.734375 152.679688 76.546875 C 149.007813 79.164063 134.867188 78.871094 124.457031 74.574219 "/>
<path style=" stroke:none;fill-rule:evenodd;fill:rgb(40.79895%,25.898743%,52.89917%);fill-opacity:1;" d="M 9.441406 129.375 C 18.25 133.511719 34.722656 135.964844 39.640625 132.957031 C 38.511719 136.617188 37.644531 139.457031 38.199219 143.679688 C 35.191406 138.578125 31.445313 134.316406 19.402344 134.992188 C 19.175781 142.101563 19.054688 148.371094 18.828125 155.476563 C 21.242188 156.429688 24.703125 156.875 27.0625 156.785156 C 31.117188 156.632813 31.464844 154.300781 32.917969 151.007813 C 32.929688 155.386719 33.082031 159.578125 33.667969 163.957031 C 32.023438 160.613281 30.019531 158.359375 26.453125 158.300781 C 24.035156 158.261719 21.679688 158.308594 19.207031 158.183594 C 20.34375 165.683594 20.792969 173.480469 24.285156 179.507813 C 21.242188 178.679688 14.414063 176.699219 12.316406 181.648438 C 13.625 164.257813 17.671875 147.070313 9.441406 129.375 "/>
<path style=" stroke:none;fill-rule:evenodd;fill:rgb(40.79895%,25.898743%,52.89917%);fill-opacity:1;" d="M 39.8125 128.007813 C 44.800781 140.210938 42.992188 158.238281 42.542969 175.097656 C 46.734375 175.410156 50.519531 176.550781 53.800781 178.683594 C 51.144531 172.824219 50.136719 166.84375 49.980469 160.460938 C 51.402344 160.234375 52.757813 160.074219 53.972656 159.230469 C 56.332031 164.808594 59.820313 169.726563 59.601563 176.804688 C 62.070313 175.539063 64.445313 175.097656 66.730469 175.46875 C 62.167969 168.65625 59.710938 166.003906 56.300781 158.339844 C 57.980469 157.011719 59.714844 155.90625 61.171875 153.722656 C 64.144531 149.269531 65.199219 142.636719 62.835938 137.738281 C 60.214844 132.3125 53.605469 128.605469 39.8125 128.007813 Z M 48.585938 136.246094 C 48.511719 143.742188 49.363281 150.988281 49.722656 158.238281 C 52.421875 158.027344 54.863281 157.28125 56.867188 155.660156 C 60.132813 153.015625 60.824219 149.96875 60.707031 146.003906 C 60.660156 144.429688 60.453125 143.035156 60.035156 141.824219 C 58.730469 138.03125 55.378906 136.078125 48.585938 136.246094 "/>
<path style=" stroke:none;fill-rule:evenodd;fill:rgb(40.79895%,25.898743%,52.89917%);fill-opacity:1;" d="M 66.136719 136.050781 C 68.027344 138.316406 75.863281 139.109375 79.492188 134.003906 C 70.90625 147.742188 75.757813 166.90625 78.042969 178.378906 C 74.933594 178.589844 71.582031 180.6875 67.988281 182.851563 C 71.941406 167.578125 67.632813 151.332031 66.136719 136.050781 "/>
<path style=" stroke:none;fill-rule:evenodd;fill:rgb(40.79895%,25.898743%,52.89917%);fill-opacity:1;" d="M 78.644531 174.476563 C 83.628906 168.421875 83.992188 148.726563 81.003906 131.402344 C 83.234375 132.851563 92.347656 132.632813 104.589844 131.652344 C 103.101563 134.589844 102.738281 137.886719 102.78125 140.679688 C 99.96875 136.832031 95.429688 135.761719 90.316406 135.746094 C 86.363281 142.367188 86.84375 153.945313 86.675781 155.609375 C 88.828125 155.644531 91.167969 155.675781 93.390625 155.710938 C 95.933594 155.746094 96.671875 153.558594 98.238281 151.65625 C 97.949219 155.132813 97.804688 158.390625 97.515625 161.867188 C 97.261719 158.074219 95.550781 156.925781 92.683594 156.890625 C 90.769531 156.863281 88.757813 157.191406 86.964844 157.84375 C 87.003906 162.105469 87.046875 166.367188 87.085938 170.628906 C 96.175781 170.761719 100.5625 168.988281 101.734375 165.910156 C 102.117188 169.214844 101.949219 173.183594 103.597656 174.972656 C 95.441406 172 86.964844 174.644531 78.644531 174.476563 "/>
<path style=" stroke:none;fill-rule:evenodd;fill:rgb(40.79895%,25.898743%,52.89917%);fill-opacity:1;" d="M 103.96875 180.808594 C 110.179688 173.472656 108.890625 157.628906 108.8125 144.933594 C 107.742188 142.8125 106.34375 140.773438 104.464844 138.851563 C 108.066406 139.5 112.121094 140.527344 115.265625 140.339844 C 118.183594 152.257813 124.058594 168.570313 127.65625 170.707031 C 128.054688 160.960938 128.046875 148.652344 123.457031 135.625 C 125.996094 137.132813 128.457031 137.734375 131.148438 139.015625 C 129.714844 147.789063 128.839844 166.027344 129.042969 178.675781 C 125.527344 177.710938 122.796875 178.21875 120.546875 180.160156 C 117.898438 168.628906 115.011719 159.375 110.921875 148.90625 C 110.753906 159.675781 110.445313 170.5 110.921875 181.054688 C 109.035156 179.964844 106.582031 180.199219 103.96875 180.808594 "/>
<path style=" stroke:none;fill-rule:evenodd;fill:rgb(40.79895%,25.898743%,52.89917%);fill-opacity:1;" d="M 132.058594 132.273438 C 134.832031 142.78125 137.363281 161.46875 131.773438 175.347656 C 144.421875 175.84375 157.027344 171.960938 159.226563 158.21875 C 160.511719 150.175781 159.585938 138.691406 152.078125 133.734375 C 148.21875 131.183594 142.074219 129.871094 132.058594 132.273438 Z M 142.300781 135.613281 C 143.042969 148.5 146.488281 160.210938 142.945313 172.367188 C 145.554688 171.925781 147.859375 170.644531 149.867188 169.097656 C 152.832031 166.816406 155.582031 164.167969 156.863281 160.585938 C 158.210938 156.820313 158.683594 151.785156 157.796875 147.414063 C 156.296875 139.996094 149.8125 135.648438 142.300781 135.613281 "/>
<path style=" stroke:none;fill-rule:evenodd;fill:rgb(40.79895%,25.898743%,52.89917%);fill-opacity:1;" d="M 180.558594 135.128906 C 181.84375 135.210938 182.96875 135.019531 184.253906 135.101563 C 183.859375 138.867188 183.265625 142.90625 183.539063 146.671875 L 180.761719 147.304688 C 181.09375 146.808594 181.34375 146.546875 181.675781 146.050781 C 180.078125 141.597656 174.800781 136.363281 169.597656 138.332031 C 168.039063 138.917969 167.125 140.152344 166.78125 141.953125 C 165.925781 145.734375 167.660156 147.871094 169.660156 150.117188 C 172.496094 153.304688 174.871094 153.851563 177.832031 155.671875 C 178.738281 156.226563 179.636719 156.878906 180.492188 157.722656 C 183.433594 160.628906 184.726563 164.804688 183.898438 168.898438 C 183.039063 173.144531 180.769531 175.488281 176.878906 176.847656 C 173.425781 178.058594 168.6875 178.527344 164.140625 175.097656 C 164.140625 175.636719 164.140625 176.226563 164.140625 176.765625 C 162.898438 176.765625 161.816406 176.710938 160.574219 176.710938 C 161.292969 173.644531 161.738281 170.425781 161.195313 166.65625 C 161.816406 166.859375 162.394531 167.0625 162.945313 167.535156 C 163.191406 167.753906 163.4375 168.027344 163.675781 168.378906 C 163.636719 169.621094 163.59375 171.125 163.554688 172.367188 C 164.613281 173.355469 165.675781 174.28125 166.765625 175.007813 C 168.679688 176.285156 170.558594 176.554688 172.894531 176.203125 C 180.730469 175.011719 182.050781 167.953125 177.214844 163.304688 C 176.894531 162.996094 176.578125 162.683594 176.234375 162.402344 C 173.507813 160.148438 170.066406 158.882813 167.15625 156.863281 C 164.046875 154.710938 161.480469 151.960938 160.425781 148.289063 C 160.050781 146.980469 159.929688 145.226563 160.5625 142.140625 C 161.324219 138.410156 163.472656 135.652344 167.761719 135.476563 C 173.726563 135.238281 178.335938 138.628906 181.925781 143.195313 C 181.976563 138.332031 182.242188 137.378906 180.558594 135.128906 "/>
<path style=" stroke:none;fill-rule:evenodd;fill:rgb(66.699219%,43.899536%,65.899658%);fill-opacity:1;" d="M 28.960938 14.71875 C 34.328125 18.65625 41.03125 17.144531 44.660156 12.441406 C 37.417969 25.726563 39.402344 35.242188 39.539063 43.390625 C 42.230469 44.351563 47.65625 44.488281 48.859375 43.453125 C 50.269531 40.101563 50.96875 19.121094 48.074219 15.96875 C 51.230469 16.078125 53.953125 15.664063 56.039063 14.488281 C 54.296875 32.605469 51.59375 58.667969 58.996094 67.316406 C 54.75 64.320313 50.5 63.148438 46.253906 63.644531 C 47.089844 58.257813 48 52.644531 48.832031 47.257813 C 46.9375 46.488281 44.207031 46.195313 39.882813 46.234375 C 40.695313 52.53125 41.257813 58.863281 43.296875 65.007813 C 38.722656 66.199219 34.679688 68.355469 31.121094 70.355469 C 35.332031 57.550781 31.761719 35.472656 28.960938 14.71875 "/>
<path style=" stroke:none;fill-rule:evenodd;fill:rgb(66.699219%,43.899536%,65.899658%);fill-opacity:1;" d="M 57.289063 59.886719 C 62.621094 48.804688 65.65625 34.042969 69.464844 20.519531 C 67.53125 17.507813 65.597656 13.910156 63.660156 10.394531 C 66.800781 13.066406 70.242188 15.492188 76.0625 15.96875 C 77.667969 31.195313 78.234375 47.039063 84.9375 59.203125 C 80.988281 59.792969 76.976563 60.195313 74.015625 63.757813 C 74.722656 58.027344 75.449219 52.355469 74.925781 42.933594 C 71.714844 42.546875 68.226563 41.789063 65.824219 42.480469 C 64.816406 47.992188 63.382813 56.117188 65.140625 58.296875 C 62.523438 58.824219 59.90625 59.355469 57.289063 59.886719 Z M 70.148438 23.363281 C 68.761719 26.140625 67.644531 32.597656 66.507813 38.839844 C 68.734375 39.804688 71.269531 40.160156 74.472656 39.179688 C 73.3125 33.851563 72.691406 28.414063 70.148438 23.363281 "/>
<path style=" stroke:none;fill-rule:evenodd;fill:rgb(66.699219%,43.899536%,65.899658%);fill-opacity:1;" d="M 83.003906 65.917969 C 91.574219 55.644531 87.046875 34.355469 84.824219 16.992188 C 96.273438 17.296875 103.757813 20.730469 106.457031 27.105469 C 108.5625 32.074219 107.488281 38.480469 104.277344 42.75 C 101.246094 46.773438 96.886719 47.421875 93.699219 48.167969 C 93.738281 53.050781 93.628906 57.878906 94.609375 63.074219 C 90.910156 63.511719 87.007813 64.570313 83.003906 65.917969 Z M 93.585938 23.25 C 93.472656 30.835938 93.359375 38.421875 93.246094 46.007813 C 94.738281 45.871094 96.230469 45.539063 97.722656 44.886719 C 100.847656 43.515625 102.113281 41.726563 103.304688 38.582031 C 104.765625 34.726563 105.105469 30.453125 102.59375 26.992188 C 100.808594 24.53125 97.933594 23.15625 93.585938 23.25 "/>
<path style=" stroke:none;fill-rule:evenodd;fill:rgb(66.699219%,43.899536%,65.899658%);fill-opacity:1;" d="M 106.558594 16.195313 C 114.875 16.476563 121.144531 17.894531 124.421875 20.976563 C 125.449219 21.859375 126.378906 22.777344 127.179688 23.734375 C 132.289063 29.871094 130.070313 39.566406 124.425781 44.625 C 121.792969 46.984375 119.105469 46.945313 116.367188 47.933594 C 117.0625 54.335938 117.46875 61.082031 120.550781 65.691406 C 116.960938 64.117188 113.472656 62.121094 108.832031 61.910156 C 108.921875 47.058594 111.878906 32.851563 106.558594 16.195313 Z M 114.976563 22.683594 C 114.722656 30.304688 115.558594 37.929688 116.113281 45.550781 C 118.730469 44.710938 121.394531 44.003906 123.546875 41.902344 C 126.429688 39.089844 127.136719 35.484375 126.890625 31.621094 C 126.621094 27.425781 123.796875 23.363281 119.523438 22.621094 C 118.285156 22.40625 116.800781 22.398438 114.976563 22.683594 "/>
<path style=" stroke:none;fill-rule:evenodd;fill:rgb(66.699219%,43.899536%,65.899658%);fill-opacity:1;" d="M 127.605469 20.519531 C 130.59375 21.570313 133.679688 22.527344 139.78125 20.746094 C 140.863281 33.070313 142.75 40.667969 145.234375 42.910156 C 149.539063 38.175781 156.082031 28.6875 155.710938 20.519531 C 157.070313 22.433594 158.867188 23.816406 161.628906 24.046875 C 154.480469 32.507813 145.203125 42.246094 144.199219 53.863281 C 143.90625 57.289063 144.046875 60.855469 145.371094 64.902344 C 141.660156 64.171875 138.492188 65.039063 135.34375 66.828125 C 137.28125 59.539063 138.167969 51.519531 140 43.601563 C 136.109375 35.714844 130.847656 28.570313 127.605469 20.519531 "/>
<path style=" stroke:none;fill-rule:evenodd;fill:rgb(66.699219%,43.899536%,65.899658%);fill-opacity:1;" d="M 32.578125 78.910156 C 54.160156 77.890625 64.742188 77.335938 70.945313 75.089844 C 70.964844 78.714844 70.597656 82.824219 72.171875 84.511719 C 67.53125 84.191406 62.890625 84.007813 58.246094 83.691406 C 55.449219 102.105469 56.503906 118.394531 61.660156 126.152344 C 57.074219 123.515625 52.273438 122.601563 47.324219 122.875 C 51.152344 110.535156 52.691406 95.371094 51.417969 83.554688 C 46.140625 83.554688 39.90625 82.597656 35.171875 84.78125 C 36.039063 82.394531 34.628906 80.574219 32.578125 78.910156 "/>
<path style=" stroke:none;fill-rule:evenodd;fill:rgb(66.699219%,43.899536%,65.899658%);fill-opacity:1;" d="M 73.128906 71.675781 C 76.425781 81.476563 76.367188 94.039063 75.039063 117.003906 C 79.136719 117.800781 83.003906 118.9375 86.371094 120.828125 C 84.320313 115.578125 81.8125 104.605469 82.414063 102.804688 C 84.234375 102.714844 85.417969 102.304688 86.507813 101.851563 C 88.90625 107.363281 92.136719 112.59375 92.105469 118.917969 C 94.132813 117.597656 96.40625 117.277344 98.796875 117.414063 C 95.019531 112.589844 91.46875 107.3125 88.421875 101.03125 C 92.105469 99.097656 94.882813 96.367188 95.65625 91.882813 C 97.011719 86.707031 95.988281 82.175781 93.335938 78.09375 C 88.125 73.019531 81.34375 72.199219 73.128906 71.675781 Z M 81.046875 79.644531 C 81.457031 86.742188 81.867188 93.519531 82.277344 100.621094 C 87.753906 100.984375 91.964844 97.265625 92.894531 92.128906 C 93.785156 87.191406 92.613281 81.851563 87.410156 80.140625 C 85.261719 79.433594 82.714844 79.085938 81.046875 79.644531 "/>
<path style=" stroke:none;fill-rule:evenodd;fill:rgb(66.699219%,43.899536%,65.899658%);fill-opacity:1;" d="M 96.066406 71.128906 C 108.433594 73.019531 116.789063 73.113281 119.277344 70.585938 C 118.484375 73.539063 118.050781 76.5 117.777344 79.457031 C 115.695313 76.195313 110.488281 75.121094 103.984375 75.5 C 103.847656 79.503906 103.714844 83.507813 103.574219 87.515625 C 110.90625 89.175781 113.765625 88.164063 113.816406 83.554688 C 114.015625 86.867188 114.082031 90.492188 114.8125 93.539063 C 112.742188 90.722656 112.382813 89.636719 109.019531 89.527344 C 107.257813 89.472656 105.484375 89.375 103.753906 89.40625 C 103.484375 96.871094 104.972656 104.429688 107.339844 108.578125 C 111.964844 108.394531 116.230469 107.90625 118.730469 103.214844 C 119.296875 106.308594 119.148438 109.40625 121.054688 112.5 C 113.257813 111.53125 105.671875 111.113281 98.660156 112.226563 C 99.175781 98.527344 102.914063 84.828125 96.066406 71.128906 "/>
<path style=" stroke:none;fill-rule:evenodd;fill:rgb(66.699219%,43.899536%,65.899658%);fill-opacity:1;" d="M 123.519531 74.144531 C 125.824219 87.46875 127.953125 107.519531 120.9375 119.210938 C 131.699219 116.09375 145.175781 114.035156 149.222656 116.507813 C 148.273438 113.765625 147.65625 110.601563 147.191406 107.375 C 146.230469 110.953125 143.265625 115.171875 130.378906 114.929688 C 129.554688 109.996094 130.15625 103.511719 130.042969 97.511719 C 133.210938 96.863281 142.355469 94.042969 142.484375 102.367188 C 143.152344 98.523438 143.246094 94.679688 142.941406 90.835938 C 141.738281 93.023438 141.085938 95.082031 138.46875 95.082031 C 135.609375 95.082031 132.75 95.082031 129.890625 95.082031 C 130.484375 89.75 131.890625 84.6875 133.230469 79.605469 C 136.414063 79.398438 141.121094 80.601563 149.164063 85.492188 C 148.566406 82.304688 149.425781 79.300781 151.742188 76.113281 C 148.070313 78.734375 133.929688 78.441406 123.519531 74.144531 "/>
<path style=" stroke:none;fill-rule:evenodd;fill:rgb(66.699219%,43.899536%,65.899658%);fill-opacity:1;" d="M 8.503906 128.941406 C 17.308594 133.078125 33.785156 135.535156 38.703125 132.527344 C 37.574219 136.1875 36.707031 139.027344 37.257813 143.246094 C 34.25 138.144531 30.507813 133.886719 18.464844 134.558594 C 18.238281 141.667969 18.117188 147.9375 17.886719 155.046875 C 20.300781 155.996094 23.761719 156.441406 26.125 156.351563 C 30.179688 156.199219 30.527344 153.867188 31.980469 150.578125 C 31.992188 154.957031 32.144531 159.148438 32.730469 163.527344 C 31.085938 160.183594 29.082031 157.925781 25.511719 157.867188 C 23.097656 157.828125 20.742188 157.878906 18.269531 157.75 C 19.40625 165.25 19.855469 173.050781 23.347656 179.078125 C 20.304688 178.25 13.476563 176.265625 11.378906 181.21875 C 12.6875 163.828125 16.734375 146.640625 8.503906 128.941406 "/>
<path style=" stroke:none;fill-rule:evenodd;fill:rgb(66.699219%,43.899536%,65.899658%);fill-opacity:1;" d="M 38.875 127.578125 C 43.859375 139.78125 42.050781 157.804688 41.601563 174.667969 C 45.796875 174.980469 49.582031 176.117188 52.863281 178.25 C 50.207031 172.394531 49.199219 166.410156 49.042969 160.03125 C 50.464844 159.800781 51.816406 159.644531 53.035156 158.800781 C 55.394531 164.378906 58.882813 169.292969 58.664063 176.375 C 61.132813 175.109375 63.507813 174.664063 65.792969 175.039063 C 61.230469 168.222656 58.769531 165.570313 55.363281 157.910156 C 57.039063 156.578125 58.777344 155.476563 60.234375 153.292969 C 63.207031 148.835938 64.261719 142.207031 61.898438 137.308594 C 59.277344 131.878906 52.667969 128.175781 38.875 127.578125 Z M 47.648438 135.816406 C 47.570313 143.3125 48.425781 150.558594 48.78125 157.804688 C 51.484375 157.59375 53.925781 156.847656 55.929688 155.226563 C 59.191406 152.585938 59.886719 149.535156 59.769531 145.574219 C 59.722656 144 59.511719 142.601563 59.097656 141.394531 C 57.789063 137.601563 54.441406 135.648438 47.648438 135.816406 "/>
<path style=" stroke:none;fill-rule:evenodd;fill:rgb(66.699219%,43.899536%,65.899658%);fill-opacity:1;" d="M 65.199219 135.621094 C 67.089844 137.882813 74.925781 138.679688 78.554688 133.574219 C 69.96875 147.3125 74.820313 166.472656 77.105469 177.945313 C 73.996094 178.15625 70.644531 180.257813 67.050781 182.417969 C 71.003906 167.144531 66.695313 150.898438 65.199219 135.621094 "/>
<path style=" stroke:none;fill-rule:evenodd;fill:rgb(66.699219%,43.899536%,65.899658%);fill-opacity:1;" d="M 77.707031 174.046875 C 82.6875 167.988281 83.054688 148.292969 80.066406 130.972656 C 82.292969 132.421875 91.40625 132.199219 103.652344 131.21875 C 102.160156 134.15625 101.796875 137.453125 101.84375 140.25 C 99.03125 136.398438 94.488281 135.332031 89.375 135.316406 C 85.425781 141.9375 85.902344 153.511719 85.738281 155.175781 C 87.890625 155.210938 90.230469 155.246094 92.453125 155.277344 C 94.996094 155.316406 95.734375 153.125 97.300781 151.226563 C 97.011719 154.699219 96.867188 157.960938 96.578125 161.4375 C 96.324219 157.644531 94.613281 156.496094 91.746094 156.457031 C 89.832031 156.433594 87.820313 156.761719 86.023438 157.410156 C 86.066406 161.675781 86.105469 165.9375 86.148438 170.199219 C 95.238281 170.332031 99.625 168.558594 100.796875 165.480469 C 101.179688 168.785156 101.011719 172.753906 102.660156 174.542969 C 94.503906 171.570313 86.023438 174.210938 77.707031 174.046875 "/>
<path style=" stroke:none;fill-rule:evenodd;fill:rgb(66.699219%,43.899536%,65.899658%);fill-opacity:1;" d="M 103.03125 180.375 C 109.242188 173.039063 107.953125 157.199219 107.871094 144.503906 C 106.804688 142.378906 105.40625 140.339844 103.527344 138.417969 C 107.128906 139.066406 111.183594 140.09375 114.328125 139.910156 C 117.246094 151.824219 123.121094 168.136719 126.71875 170.273438 C 127.117188 160.53125 127.105469 148.21875 122.519531 135.191406 C 125.058594 136.703125 127.519531 137.300781 130.210938 138.585938 C 128.777344 147.355469 127.902344 165.597656 128.105469 178.246094 C 124.589844 177.277344 121.859375 177.785156 119.609375 179.726563 C 116.960938 168.199219 114.074219 158.941406 109.980469 148.472656 C 109.816406 159.246094 109.507813 170.066406 109.980469 180.625 C 108.097656 179.53125 105.644531 179.769531 103.03125 180.375 "/>
<path style=" stroke:none;fill-rule:evenodd;fill:rgb(66.699219%,43.899536%,65.899658%);fill-opacity:1;" d="M 131.121094 131.839844 C 133.894531 142.351563 136.425781 161.039063 130.835938 174.914063 C 143.480469 175.410156 156.089844 171.527344 158.285156 157.789063 C 159.570313 149.742188 158.644531 138.261719 151.140625 133.304688 C 147.28125 130.753906 141.136719 129.441406 131.121094 131.839844 Z M 141.363281 135.183594 C 142.105469 148.070313 145.550781 159.777344 142.007813 171.933594 C 144.613281 171.496094 146.921875 170.214844 148.929688 168.667969 C 151.894531 166.386719 154.644531 163.738281 155.925781 160.152344 C 157.269531 156.386719 157.742188 151.351563 156.859375 146.980469 C 155.359375 139.566406 148.875 135.21875 141.363281 135.183594 "/>
<path style=" stroke:none;fill-rule:evenodd;fill:rgb(66.699219%,43.899536%,65.899658%);fill-opacity:1;" d="M 179.621094 134.695313 C 180.902344 134.777344 182.03125 134.589844 183.3125 134.671875 C 182.921875 138.4375 182.324219 142.472656 182.601563 146.238281 L 179.824219 146.875 C 180.152344 146.378906 180.40625 146.117188 180.738281 145.621094 C 179.136719 141.167969 173.863281 135.933594 168.660156 137.898438 C 167.101563 138.488281 166.1875 139.722656 165.84375 141.523438 C 164.988281 145.304688 166.722656 147.441406 168.722656 149.683594 C 171.558594 152.875 173.933594 153.421875 176.894531 155.238281 C 177.800781 155.796875 178.695313 156.445313 179.554688 157.292969 C 182.496094 160.199219 183.789063 164.375 182.960938 168.464844 C 182.097656 172.714844 179.832031 175.054688 175.941406 176.417969 C 172.488281 177.625 167.75 178.09375 163.203125 174.667969 C 163.203125 175.203125 163.203125 175.792969 163.203125 176.332031 C 161.960938 176.332031 160.878906 176.28125 159.636719 176.28125 C 160.355469 173.214844 160.800781 169.992188 160.257813 166.226563 C 160.878906 166.425781 161.457031 166.628906 162.007813 167.105469 C 162.253906 167.320313 162.5 167.59375 162.738281 167.949219 C 162.699219 169.191406 162.65625 170.695313 162.613281 171.933594 C 163.675781 172.925781 164.734375 173.847656 165.828125 174.578125 C 167.738281 175.855469 169.621094 176.125 171.957031 175.769531 C 179.792969 174.582031 181.113281 167.523438 176.277344 162.871094 C 175.957031 162.566406 175.636719 162.253906 175.296875 161.972656 C 172.566406 159.71875 169.128906 158.449219 166.214844 156.433594 C 163.105469 154.28125 160.542969 151.53125 159.488281 147.855469 C 159.113281 146.546875 158.992188 144.792969 159.625 141.707031 C 160.386719 137.980469 162.53125 135.21875 166.824219 135.046875 C 172.785156 134.804688 177.398438 138.195313 180.984375 142.765625 C 181.039063 137.898438 181.304688 136.945313 179.621094 134.695313 "/>
<path style="fill:none;stroke-width:4.94591;stroke-linecap:square;stroke-linejoin:bevel;stroke:rgb(100%,100%,100%);stroke-opacity:1;stroke-dasharray:9.89181,14.8377;stroke-miterlimit:2.6131;" d="M 1627.695313 466.914063 C 1638.632813 427.96875 1640 395.898438 1680.273438 382.929688 C 1702.8125 375.429688 1738.984375 372.695313 1749.21875 352.1875 C 1754.6875 340.585938 1793.984375 259.101563 1799.0625 258.007813 C 1821.953125 252.96875 1834.765625 262.34375 1827.109375 279.179688 C 1815.039063 305.9375 1791.328125 268.164063 1812.734375 267.539063 " transform="matrix(0.1,0,0,-0.1,0,193)"/>
<path style="fill:none;stroke-width:4.94591;stroke-linecap:square;stroke-linejoin:bevel;stroke:rgb(100%,100%,100%);stroke-opacity:1;stroke-dasharray:9.89181,14.8377;stroke-miterlimit:2.6131;" d="M 1377.734375 248.085938 C 1360.9375 293.242188 1343.046875 370.976563 1366.171875 418.242188 C 1376.679688 440.3125 1378.789063 479.179688 1378.789063 510.664063 C 1378.789063 536.953125 1340.15625 550.898438 1344.101563 576.875 C 1351.992188 628.710938 1427.304688 589.609375 1392.421875 562.148438 C 1371.289063 545.507813 1354.765625 576.40625 1374.570313 584.21875 C 1386.367188 588.867188 1387.1875 574.765625 1387.1875 568.4375 C 1387.1875 557.96875 1365.117188 577.890625 1379.804688 577.890625 " transform="matrix(0.1,0,0,-0.1,0,193)"/>
<path style="fill:none;stroke-width:4.94591;stroke-linecap:square;stroke-linejoin:bevel;stroke:rgb(100%,100%,100%);stroke-opacity:1;stroke-dasharray:9.89181,14.8377;stroke-miterlimit:2.6131;" d="M 1136.132813 468.671875 C 1165.546875 432.929688 1169.726563 408.789063 1169.726563 353.125 C 1169.726563 319.492188 1171.835938 285.898438 1184.453125 259.648438 C 1194.960938 238.632813 1214.375 231.289063 1232.773438 218.671875 C 1265.859375 195.9375 1234.335938 145.976563 1207.539063 170.351563 C 1190.039063 186.289063 1216.757813 212.148438 1226.210938 200.9375 C 1239.84375 184.765625 1216.992188 167.1875 1216.992188 192.382813 " transform="matrix(0.1,0,0,-0.1,0,193)"/>
<path style="fill:none;stroke-width:4.94591;stroke-linecap:square;stroke-linejoin:bevel;stroke:rgb(100%,100%,100%);stroke-opacity:1;stroke-dasharray:9.89181,14.8377;stroke-miterlimit:2.6131;" d="M 839.921875 577.265625 C 828.515625 577.265625 839.921875 595.46875 852.421875 582.96875 C 867.226563 568.164063 821.71875 544.257813 821.71875 577.265625 C 821.71875 625.039063 893.398438 589.765625 860.390625 556.796875 C 803.476563 499.882813 848.90625 475.898438 852.421875 407.734375 C 855.820313 341.757813 813.75 285.976563 830.820313 246.171875 " transform="matrix(0.1,0,0,-0.1,0,193)"/>
<path style="fill:none;stroke-width:4.94591;stroke-linecap:square;stroke-linejoin:bevel;stroke:rgb(100%,100%,100%);stroke-opacity:1;stroke-dasharray:9.89181,14.8377;stroke-miterlimit:2.6131;" d="M 711.328125 491.914063 C 730.820313 467.695313 725.390625 438.984375 694.257813 361.09375 C 676.640625 316.953125 760.273438 215.429688 748.867188 173.359375 C 737.617188 131.601563 671.679688 135.742188 688.59375 171.054688 C 696.71875 188.046875 712.460938 189.257813 723.828125 177.890625 C 730.664063 171.054688 723.828125 161.953125 714.726563 161.953125 C 704.492188 161.953125 707.929688 177.890625 715.898438 177.890625 " transform="matrix(0.1,0,0,-0.1,0,193)"/>
<path style="fill:none;stroke-width:4.94591;stroke-linecap:square;stroke-linejoin:miter;stroke:rgb(100%,100%,100%);stroke-opacity:1;stroke-dasharray:9.89181,14.8377;stroke-miterlimit:2.6131;" d="M 433.984375 605.9375 C 453.046875 605.9375 438.75 586.875 429.21875 596.40625 C 422.070313 603.554688 447.070313 634.53125 447.070313 589.257813 C 447.070313 580.898438 423.59375 584.570313 420.859375 586.875 C 399.609375 605 440.625 641.40625 461.289063 628.90625 C 499.726563 605.625 436.367188 551.835938 436.367188 526.09375 C 436.367188 473.671875 470.898438 451.5625 470.898438 402.148438 C 470.898438 352.773438 471.210938 306.757813 457.8125 253.203125 " transform="matrix(0.1,0,0,-0.1,0,193)"/>
<path style="fill:none;stroke-width:4.94591;stroke-linecap:square;stroke-linejoin:miter;stroke:rgb(100%,100%,100%);stroke-opacity:1;stroke-dasharray:9.89181,14.8377;stroke-miterlimit:2.6131;" d="M 153.90625 540.390625 C 146.757813 495.117188 193.242188 424.804688 169.414063 375.9375 C 153.90625 344.960938 133.671875 298.476563 150.351563 263.90625 C 155.117188 254.375 189.6875 197.1875 189.6875 191.210938 C 189.6875 130.429688 102.65625 163.828125 136.054688 197.1875 C 149.140625 210.273438 184.882813 188.828125 155.117188 174.53125 C 143.203125 168.59375 137.226563 193.59375 144.375 193.59375 C 152.734375 193.59375 162.265625 179.296875 150.351563 179.296875 " transform="matrix(0.1,0,0,-0.1,0,193)"/>
<path style="fill:none;stroke-width:4.94591;stroke-linecap:square;stroke-linejoin:bevel;stroke:rgb(100%,100%,100%);stroke-opacity:1;stroke-dasharray:9.89181,14.8377;stroke-miterlimit:2.6131;" d="M 543.59375 1069.53125 C 543.59375 1025.429688 579.375 970.625 563.867188 921.757813 C 560.976563 912.304688 546.09375 881.171875 538.4375 854.804688 C 529.6875 824.53125 548.242188 775.3125 569.804688 753.710938 C 609.140625 714.375 523.359375 681.015625 523.359375 726.289063 C 523.359375 748.945313 560.3125 754.921875 560.3125 731.054688 C 560.3125 719.140625 543.59375 716.757813 538.828125 729.882813 C 531.679688 747.773438 555.507813 727.5 545.976563 727.5 " transform="matrix(0.1,0,0,-0.1,0,193)"/>
<path style="fill:none;stroke-width:4.94591;stroke-linecap:square;stroke-linejoin:bevel;stroke:rgb(100%,100%,100%);stroke-opacity:1;stroke-dasharray:9.89181,14.8377;stroke-miterlimit:2.6131;" d="M 771.210938 1167.226563 C 787.929688 1167.226563 765.273438 1148.164063 765.273438 1168.4375 C 765.273438 1183.945313 802.226563 1171.992188 775.976563 1145.78125 C 765.273438 1135.078125 745 1163.671875 752.148438 1179.140625 C 770.039063 1214.921875 821.289063 1176.757813 804.609375 1142.226563 C 792.695313 1117.1875 774.804688 1101.71875 774.804688 1069.53125 C 774.804688 1031.40625 805.78125 993.242188 805.78125 944.375 C 805.78125 922.929688 803.398438 900.3125 803.398438 881.25 C 803.398438 874.0625 797.460938 864.53125 797.460938 855 C 797.460938 852.617188 791.484375 832.382813 791.484375 832.382813 " transform="matrix(0.1,0,0,-0.1,0,193)"/>
<path style="fill:none;stroke-width:4.92651;stroke-linecap:square;stroke-linejoin:bevel;stroke:rgb(100%,100%,100%);stroke-opacity:1;stroke-dasharray:9.85302,14.7795;stroke-miterlimit:2.6131;" d="M -844.104489 1007.475858 C -821.554774 1000.355474 -835.829724 1034.790114 -853.634195 1016.969702 C -863.124684 1007.475858 -841.751476 987.281984 -829.868756 999.149289 C -797.828551 1031.210468 -837.3984 1057.435268 -867.869929 1031.210468 C -918.891112 987.281984 -926.028587 1016.697337 -991.32472 1024.090085 C -1054.26784 1031.249377 -1094.58281 1006.191854 -1157.486713 1002.728935 " transform="matrix(0,0.0996063,0.100394,0,0,193)"/>
<path style="fill:none;stroke-width:4.94591;stroke-linecap:square;stroke-linejoin:bevel;stroke:rgb(100%,100%,100%);stroke-opacity:1;stroke-dasharray:9.89181,14.8377;stroke-miterlimit:2.6131;" d="M 1275.546875 800.898438 C 1289.765625 838.515625 1304.0625 911.640625 1294.0625 955.585938 C 1288.515625 979.960938 1270.507813 997.617188 1268.90625 1021.132813 C 1265.820313 1065.3125 1317.109375 1102.148438 1308.945313 1131.71875 C 1301.445313 1158.867188 1247.03125 1157.109375 1259.375 1121.25 C 1263.515625 1109.140625 1286.054688 1109.804688 1293.671875 1117.421875 C 1298.4375 1122.1875 1288.90625 1131.71875 1285.117188 1131.71875 C 1272.695313 1131.71875 1267.929688 1124.101563 1272.695313 1124.101563 " transform="matrix(0.1,0,0,-0.1,0,193)"/>
<path style="fill:none;stroke-width:4.94591;stroke-linecap:square;stroke-linejoin:bevel;stroke:rgb(100%,100%,100%);stroke-opacity:1;stroke-dasharray:9.89181,14.8377;stroke-miterlimit:2.6131;" d="M 359.726563 1689.257813 C 401.09375 1641.679688 356.523438 1579.21875 342.03125 1538.515625 C 307.929688 1442.773438 451.757813 1335.234375 396.132813 1283.789063 C 358.359375 1248.867188 312.96875 1309.765625 349.335938 1327.96875 C 374.023438 1339.6875 385.742188 1298.085938 374.023438 1298.085938 C 367.539063 1298.085938 353.242188 1288.984375 353.242188 1307.1875 C 353.242188 1325.351563 374.023438 1308.476563 362.34375 1303.28125 " transform="matrix(0.1,0,0,-0.1,0,193)"/>
<path style="fill:none;stroke-width:4.94591;stroke-linecap:square;stroke-linejoin:bevel;stroke:rgb(100%,100%,100%);stroke-opacity:1;stroke-dasharray:9.89181,14.8377;stroke-miterlimit:2.6131;" d="M 778.671875 1389.0625 C 717.578125 1461.835938 806.679688 1610.351563 747.03125 1675.15625 C 732.070313 1691.367188 652.734375 1749.609375 731.40625 1764.648438 C 756.953125 1769.492188 774.023438 1724.960938 738.203125 1719.21875 C 723.828125 1716.914063 721.015625 1734.726563 728.828125 1742.539063 C 739.21875 1752.929688 750.898438 1730.859375 735.3125 1730.859375 " transform="matrix(0.1,0,0,-0.1,0,193)"/>
<path style="fill:none;stroke-width:4.94591;stroke-linecap:square;stroke-linejoin:bevel;stroke:rgb(100%,100%,100%);stroke-opacity:1;stroke-dasharray:9.89181,14.8377;stroke-miterlimit:2.6131;" d="M 898.554688 1685.546875 C 955.9375 1507.851563 859.023438 1477.460938 900.546875 1392.578125 C 907.460938 1378.476563 934.140625 1363.046875 934.140625 1339.6875 C 934.140625 1279.882813 856.523438 1307.8125 875.3125 1339.101563 C 899.648438 1379.648438 930.078125 1324.335938 898.945313 1320.9375 C 891.171875 1320.078125 885.9375 1335.15625 896.328125 1335.15625 " transform="matrix(0.1,0,0,-0.1,0,193)"/>
<path style="fill:none;stroke-width:4.94591;stroke-linecap:square;stroke-linejoin:bevel;stroke:rgb(100%,100%,100%);stroke-opacity:1;stroke-dasharray:9.89181,14.8377;stroke-miterlimit:2.6131;" d="M 1117.382813 1732.148438 C 1112.1875 1720.429688 1101.796875 1725.625 1113.476563 1737.34375 C 1127.773438 1751.640625 1123.90625 1687.96875 1095.3125 1716.523438 C 1066.71875 1745.117188 1143.398438 1785.429688 1143.398438 1712.65625 C 1143.398438 1685.351563 1112.1875 1687.539063 1112.1875 1638.554688 C 1112.1875 1590.46875 1132.34375 1559.648438 1148.554688 1506.015625 C 1152.695313 1492.421875 1139.648438 1365.78125 1133.164063 1367.382813 " transform="matrix(0.1,0,0,-0.1,0,193)"/>
<path style="fill:none;stroke-width:4.73269;stroke-linecap:square;stroke-linejoin:bevel;stroke:rgb(100%,100%,100%);stroke-opacity:1;stroke-dasharray:9.46538,14.1981;stroke-miterlimit:2.6131;" d="M 1392.026215 1612.089775 C 1396.998732 1561.095647 1447.957083 1535.003843 1447.957083 1484.048085 C 1447.957083 1451.701922 1428.067016 1429.332038 1428.067016 1392.036106 C 1428.067016 1352.246105 1488.970401 1295.035988 1442.984567 1272.666103 C 1399.4651 1251.524068 1396.998732 1309.962035 1409.410134 1309.962035 C 1420.628131 1309.962035 1431.806349 1314.950174 1431.806349 1293.808139 C 1431.806349 1286.364301 1418.121983 1286.364301 1415.655615 1292.580289 C 1410.683098 1302.518197 1425.560868 1297.530058 1425.560868 1301.251977 " transform="matrix(0.098196,0,0,-0.101804,0,193)"/>
<path style=" stroke:none;fill-rule:evenodd;fill:rgb(13.699341%,12.199402%,12.5%);fill-opacity:1;" d="M 35.289063 22.898438 C 35.71875 22.898438 36.070313 22.6875 36.070313 22.429688 C 36.070313 22.171875 35.71875 21.960938 35.289063 21.960938 C 34.859375 21.960938 34.507813 22.171875 34.507813 22.429688 C 34.507813 22.6875 34.859375 22.898438 35.289063 22.898438 "/>
<path style=" stroke:none;fill-rule:evenodd;fill:rgb(100%,98.799133%,83.499146%);fill-opacity:1;" d="M 31.472656 22.273438 C 30.941406 23.757813 34.171875 23.019531 34.152344 22.539063 C 34.125 21.996094 31.667969 21.726563 31.472656 22.273438 "/>
<path style=" stroke:none;fill-rule:evenodd;fill:rgb(100%,98.799133%,83.499146%);fill-opacity:1;" d="M 34.660156 25.265625 C 34.460938 25.828125 34.121094 26.246094 33.570313 26.085938 C 32.660156 25.816406 33.742188 23.316406 34.597656 23.390625 C 35.066406 23.429688 34.84375 24.761719 34.660156 25.265625 "/>
<path style=" stroke:none;fill-rule:evenodd;fill:rgb(100%,98.799133%,83.499146%);fill-opacity:1;" d="M 35 21.738281 C 34.308594 21.390625 33.289063 20.183594 33.46875 19.265625 C 33.640625 18.394531 34.515625 18.4375 35.042969 19.035156 C 35.550781 19.613281 35.207031 21.265625 35 21.738281 "/>
<path style=" stroke:none;fill-rule:evenodd;fill:rgb(100%,98.799133%,83.499146%);fill-opacity:1;" d="M 38.390625 20.746094 C 37.988281 21.59375 36.792969 22.050781 35.890625 22.050781 C 35.714844 22.050781 35.980469 21.691406 36.027344 21.558594 C 36.191406 21.066406 36.800781 20.089844 37.402344 19.683594 C 38.234375 19.117188 38.71875 20.039063 38.390625 20.746094 "/>
<path style=" stroke:none;fill-rule:evenodd;fill:rgb(100%,98.799133%,83.499146%);fill-opacity:1;" d="M 38.703125 23.613281 C 38.820313 23.847656 38.71875 24.039063 38.527344 24.164063 C 37.945313 24.554688 37.203125 24.109375 36.667969 23.816406 C 36.128906 23.515625 35.308594 22.988281 36.160156 22.988281 C 36.976563 22.988281 38.246094 22.691406 38.703125 23.613281 "/>
<path style="fill:none;stroke-width:10.3953;stroke-linecap:butt;stroke-linejoin:miter;stroke:rgb(100%,100%,100%);stroke-opacity:1;stroke-miterlimit:2.6131;" d="M -1492.31536 752.984465 C -1491.627263 756.557751 -1492.867566 759.760167 -1494.969655 760.167362 C -1497.113106 760.571947 -1499.402119 758.018875 -1500.048853 754.4482 C -1500.695587 750.877525 -1499.494037 747.631136 -1497.353196 747.267914 C -1495.209744 746.863329 -1492.962095 749.41379 -1492.31536 752.984465 Z M -1492.31536 752.984465 " transform="matrix(-0.00593646,0.0940635,0.0940636,0.00593646,0,193)"/>
<path style=" stroke:none;fill-rule:evenodd;fill:rgb(100%,98.799133%,83.499146%);fill-opacity:1;" d="M 76.875 55.886719 C 76.179688 56.925781 78.808594 56.980469 78.882813 56.605469 C 78.96875 56.183594 77.128906 55.503906 76.875 55.886719 "/>
<path style=" stroke:none;fill-rule:evenodd;fill:rgb(100%,98.799133%,83.499146%);fill-opacity:1;" d="M 78.75 58.800781 C 78.488281 59.191406 78.148438 59.449219 77.757813 59.21875 C 77.105469 58.839844 78.417969 57.121094 79.0625 57.34375 C 79.414063 57.464844 78.988281 58.445313 78.75 58.800781 "/>
<path style=" stroke:none;fill-rule:evenodd;fill:rgb(100%,98.799133%,83.499146%);fill-opacity:1;" d="M 79.6875 56.152344 C 79.222656 55.753906 78.671875 54.628906 78.988281 53.957031 C 79.285156 53.320313 79.953125 53.519531 80.242188 54.082031 C 80.523438 54.625 79.941406 55.828125 79.6875 56.152344 "/>
<path style=" stroke:none;fill-rule:evenodd;fill:rgb(100%,98.799133%,83.499146%);fill-opacity:1;" d="M 82.484375 56.039063 C 82.015625 56.617188 81.007813 56.734375 80.316406 56.5625 C 80.179688 56.527344 80.453125 56.304688 80.511719 56.210938 C 80.734375 55.863281 81.390625 55.230469 81.929688 55.035156 C 82.679688 54.757813 82.875 55.5625 82.484375 56.039063 "/>
<path style=" stroke:none;fill-rule:evenodd;fill:rgb(100%,98.799133%,83.499146%);fill-opacity:1;" d="M 82.179688 58.304688 C 82.222656 58.507813 82.105469 58.636719 81.9375 58.695313 C 81.410156 58.882813 80.929688 58.398438 80.574219 58.070313 C 80.214844 57.734375 79.6875 57.171875 80.339844 57.335938 C 80.96875 57.492188 82 57.511719 82.179688 58.304688 "/>
<path style="fill:none;stroke-width:9.82156;stroke-linecap:butt;stroke-linejoin:miter;stroke:rgb(100%,100%,100%);stroke-opacity:1;stroke-miterlimit:2.6131;" d="M 1718.783398 -889.474095 C 1719.025763 -892.527785 1720.676074 -894.873219 1722.516176 -894.751276 C 1724.317121 -894.629428 1725.642186 -892.041818 1725.438978 -888.988033 C 1725.235866 -885.973406 1723.58546 -883.588814 1721.745357 -883.710757 C 1719.905255 -883.832701 1718.580191 -886.42031 1718.783398 -889.474095 Z M 1718.783398 -889.474095 " transform="matrix(0.000242402,-0.0997576,-0.0997576,-0.000242405,0,193)"/>
<path style="fill:none;stroke-width:9.82156;stroke-linecap:butt;stroke-linejoin:miter;stroke:rgb(100%,100%,100%);stroke-opacity:1;stroke-miterlimit:2.6131;" d="M 1721.379672 -862.135909 C 1710.604024 -859.107814 1717.393867 -881.645988 1720.79959 -881.246138 C 1724.596696 -880.767022 1725.337308 -863.261857 1721.379672 -862.135909 Z M 1721.379672 -862.135909 " transform="matrix(0.000242402,-0.0997576,-0.0997576,-0.000242405,0,193)"/>
<path style="fill:none;stroke-width:9.82156;stroke-linecap:butt;stroke-linejoin:miter;stroke:rgb(100%,100%,100%);stroke-opacity:1;stroke-miterlimit:2.6131;" d="M 1701.741934 -886.187124 C 1697.666732 -885.022303 1694.567986 -882.837018 1695.419739 -878.840891 C 1696.891727 -872.258869 1715.115614 -878.714717 1714.973828 -884.823619 C 1714.942759 -888.152075 1705.386027 -887.196362 1701.741934 -886.187124 Z M 1701.741934 -886.187124 " transform="matrix(0.000242402,-0.0997576,-0.0997576,-0.000242405,0,193)"/>
<path style="fill:none;stroke-width:10.3268;stroke-linecap:butt;stroke-linejoin:miter;stroke:rgb(100%,100%,100%);stroke-opacity:1;stroke-miterlimit:2.6131;" d="M 1036.124686 1758.615865 C 1030.945219 1761.130657 1023.276844 1770.05164 1024.524245 1776.909776 C 1025.709959 1783.400225 1032.255284 1783.201105 1036.253904 1778.731468 C 1040.099524 1774.476516 1037.641355 1762.160205 1036.124686 1758.615865 Z M 1036.124686 1758.615865 " transform="matrix(0.0947309,-0.00526908,-0.00526909,-0.0947309,0,193)"/>
<path style="fill:none;stroke-width:9.82156;stroke-linecap:butt;stroke-linejoin:miter;stroke:rgb(100%,100%,100%);stroke-opacity:1;stroke-miterlimit:2.6131;" d="M 1735.554327 -910.343404 C 1729.322435 -907.930787 1725.543268 -899.677755 1725.09703 -893.29618 C 1725.015671 -892.043341 1727.682546 -893.759787 1728.622984 -894.031603 C 1732.188477 -894.92356 1739.402819 -898.782614 1742.584447 -902.847255 C 1746.983753 -908.475233 1740.688866 -912.367113 1735.554327 -910.343404 Z M 1735.554327 -910.343404 " transform="matrix(0.000242402,-0.0997576,-0.0997576,-0.000242405,0,193)"/>
<path style="fill:none;stroke-width:9.82156;stroke-linecap:butt;stroke-linejoin:miter;stroke:rgb(100%,100%,100%);stroke-opacity:1;stroke-miterlimit:2.6131;" d="M 1715.397034 -913.955709 C 1713.793968 -914.93854 1712.382692 -914.276293 1711.400622 -912.986485 C 1708.375909 -909.038936 1711.142843 -903.589331 1712.973716 -899.66914 C 1714.843651 -895.709697 1718.196421 -889.632151 1718.602646 -895.661406 C 1719.008205 -901.416561 1721.692397 -910.259615 1715.397034 -913.955709 Z M 1715.397034 -913.955709 " transform="matrix(0.000242402,-0.0997576,-0.0997576,-0.000242405,0,193)"/>
<path style="fill:none;stroke-width:9.81199;stroke-linecap:butt;stroke-linejoin:miter;stroke:rgb(100%,100%,100%);stroke-opacity:1;stroke-miterlimit:2.6131;" d="M -1139.280901 -1346.126142 C -1138.89083 -1349.607638 -1135.926291 -1352.345893 -1132.610686 -1352.189422 C -1129.334089 -1352.03295 -1126.993662 -1349.099106 -1127.383732 -1345.578492 C -1127.773803 -1342.057878 -1130.738343 -1339.358741 -1134.053947 -1339.515213 C -1137.330544 -1339.632566 -1139.670971 -1342.605529 -1139.280901 -1346.126142 Z M -1139.280901 -1346.126142 " transform="matrix(-0.100142,0.000000006,0.000000018,0.0998583,0,193)"/>
<path style=" stroke:none;fill-rule:evenodd;fill:rgb(100%,98.799133%,83.499146%);fill-opacity:1;" d="M 113.585938 62.113281 C 114.992188 62.507813 114.101563 59.570313 113.65625 59.625 C 113.160156 59.683594 113.066406 61.96875 113.585938 62.113281 "/>
<path style=" stroke:none;fill-rule:evenodd;fill:rgb(100%,98.799133%,83.499146%);fill-opacity:1;" d="M 116.746094 58.824219 C 117.375 58.972656 117.855469 59.253906 117.722656 59.777344 C 117.503906 60.632813 114.699219 59.800781 114.714844 59.007813 C 114.71875 58.570313 116.1875 58.6875 116.746094 58.824219 "/>
<path style=" stroke:none;fill-rule:evenodd;fill:rgb(100%,98.799133%,83.499146%);fill-opacity:1;" d="M 112.410156 58.816406 C 112.136719 59.480469 111.085938 60.5 110.230469 60.394531 C 109.414063 60.292969 109.394531 59.480469 109.914063 58.953125 C 110.410156 58.449219 111.960938 58.65625 112.410156 58.816406 "/>
<path style=" stroke:none;fill-rule:evenodd;fill:rgb(100%,98.799133%,83.499146%);fill-opacity:1;" d="M 111.757813 55.527344 C 112.570313 55.84375 113.066406 56.914063 113.128906 57.746094 C 113.140625 57.910156 112.792969 57.6875 112.664063 57.65625 C 112.199219 57.535156 111.261719 57.035156 110.84375 56.511719 C 110.269531 55.777344 111.085938 55.269531 111.757813 55.527344 "/>
<path style=" stroke:none;fill-rule:evenodd;fill:rgb(100%,98.799133%,83.499146%);fill-opacity:1;" d="M 115.21875 55.238281 C 114.378906 55.695313 113.988281 56.9375 114.039063 57.855469 C 114.050781 58.035156 114.398438 57.742188 114.53125 57.6875 C 115.023438 57.492188 115.980469 56.8125 116.359375 56.179688 C 116.882813 55.296875 115.917969 54.859375 115.21875 55.238281 "/>
<path style="fill:none;stroke-width:10.5303;stroke-linecap:butt;stroke-linejoin:miter;stroke:rgb(100%,100%,100%);stroke-opacity:1;stroke-miterlimit:2.6131;" d="M -1900.324446 1312.866925 C -1900.006292 1316.344831 -1901.461811 1319.347444 -1903.538878 1319.522247 C -1905.61921 1319.738906 -1907.599742 1317.057712 -1907.917895 1313.579806 C -1908.236048 1310.101899 -1906.822385 1307.09602 -1904.745319 1306.921217 C -1902.623131 1306.707825 -1900.684454 1309.385752 -1900.324446 1312.866925 Z M -1900.324446 1312.866925 " transform="matrix(-0.0072386,0.0927614,0.0927614,0.0072386,0,193)"/>
<path style=" stroke:none;fill-rule:evenodd;fill:rgb(100%,98.799133%,83.499146%);fill-opacity:1;" d="M 132.78125 25.265625 C 132.191406 26.300781 134.691406 26.171875 134.738281 25.8125 C 134.789063 25.40625 132.996094 24.882813 132.78125 25.265625 "/>
<path style=" stroke:none;fill-rule:evenodd;fill:rgb(100%,98.799133%,83.499146%);fill-opacity:1;" d="M 134.765625 27.902344 C 134.539063 28.296875 134.234375 28.5625 133.847656 28.371094 C 133.203125 28.054688 134.335938 26.335938 134.960938 26.5 C 135.304688 26.589844 134.964844 27.554688 134.765625 27.902344 "/>
<path style=" stroke:none;fill-rule:evenodd;fill:rgb(100%,98.799133%,83.499146%);fill-opacity:1;" d="M 135.472656 25.324219 C 135.003906 24.976563 134.402344 23.945313 134.65625 23.289063 C 134.894531 22.664063 135.542969 22.808594 135.855469 23.320313 C 136.160156 23.816406 135.691406 25 135.472656 25.324219 "/>
<path style=" stroke:none;fill-rule:evenodd;fill:rgb(100%,98.799133%,83.499146%);fill-opacity:1;" d="M 138.121094 25.027344 C 137.714844 25.605469 136.765625 25.789063 136.097656 25.671875 C 135.964844 25.648438 136.210938 25.417969 136.261719 25.324219 C 136.445313 24.980469 137.027344 24.335938 137.527344 24.109375 C 138.21875 23.796875 138.460938 24.546875 138.121094 25.027344 "/>
<path style=" stroke:none;fill-rule:evenodd;fill:rgb(100%,98.799133%,83.499146%);fill-opacity:1;" d="M 137.984375 27.199219 C 138.042969 27.390625 137.9375 27.519531 137.78125 27.585938 C 137.296875 27.804688 136.804688 27.375 136.445313 27.085938 C 136.082031 26.792969 135.542969 26.292969 136.175781 26.402344 C 136.78125 26.511719 137.761719 26.457031 137.984375 27.199219 "/>
<path style="fill:none;stroke-width:11.1399;stroke-linecap:butt;stroke-linejoin:miter;stroke:rgb(100%,100%,100%);stroke-opacity:1;stroke-miterlimit:2.6131;" d="M -1325.383881 427.555401 C -1324.73928 430.750474 -1325.801146 433.645296 -1327.744544 434.028113 C -1329.637445 434.373578 -1331.720156 432.086005 -1332.320833 428.897505 C -1332.958861 425.658508 -1331.896995 422.763686 -1330.004094 422.418221 C -1328.060695 422.035404 -1325.977985 424.322977 -1325.383881 427.555401 Z M -1325.383881 427.555401 " transform="matrix(-0.0130157,0.0869843,0.0869843,0.0130157,0,193)"/>
<path style=" stroke:none;fill-rule:evenodd;fill:rgb(100%,98.799133%,83.499146%);fill-opacity:1;" d="M 52.183594 82.039063 C 51.519531 82.855469 53.710938 83.109375 53.804688 82.800781 C 53.90625 82.457031 52.425781 81.738281 52.183594 82.039063 "/>
<path style=" stroke:none;fill-rule:evenodd;fill:rgb(100%,98.799133%,83.499146%);fill-opacity:1;" d="M 53.519531 84.625 C 53.269531 84.933594 52.964844 85.121094 52.65625 84.898438 C 52.144531 84.527344 53.375 83.199219 53.898438 83.433594 C 54.179688 83.5625 53.746094 84.351563 53.519531 84.625 "/>
<path style=" stroke:none;fill-rule:evenodd;fill:rgb(100%,98.799133%,83.499146%);fill-opacity:1;" d="M 54.515625 82.484375 C 54.15625 82.113281 53.785156 81.128906 54.101563 80.597656 C 54.402344 80.089844 54.941406 80.308594 55.140625 80.800781 C 55.332031 81.273438 54.75 82.234375 54.515625 82.484375 "/>
<path style=" stroke:none;fill-rule:evenodd;fill:rgb(100%,98.799133%,83.499146%);fill-opacity:1;" d="M 56.863281 82.613281 C 56.421875 83.058594 55.570313 83.078125 55.007813 82.878906 C 54.894531 82.839844 55.140625 82.675781 55.199219 82.601563 C 55.410156 82.328125 56.011719 81.851563 56.476563 81.730469 C 57.125 81.558594 57.226563 82.246094 56.863281 82.613281 "/>
<path style=" stroke:none;fill-rule:evenodd;fill:rgb(100%,98.799133%,83.499146%);fill-opacity:1;" d="M 56.425781 84.484375 C 56.445313 84.65625 56.339844 84.753906 56.191406 84.789063 C 55.738281 84.90625 55.375 84.464844 55.101563 84.160156 C 54.828125 83.851563 54.433594 83.339844 54.964844 83.527344 C 55.476563 83.707031 56.339844 83.804688 56.425781 84.484375 "/>
<path style="fill:none;stroke-width:9.81199;stroke-linecap:butt;stroke-linejoin:miter;stroke:rgb(100%,100%,100%);stroke-opacity:1;stroke-miterlimit:2.6131;" d="M -804.053699 -794.758938 C -803.663629 -798.279551 -800.660082 -800.978689 -797.383485 -800.861335 C -794.106887 -800.704864 -791.727453 -797.731901 -792.117524 -794.211287 C -792.507594 -790.690674 -795.511141 -787.991536 -798.787738 -788.148008 C -802.064336 -788.304479 -804.44377 -791.238324 -804.053699 -794.758938 Z M -804.053699 -794.758938 " transform="matrix(-0.100142,0.000000006,0.000000018,0.0998583,0,193)"/>
<path style=" stroke:none;fill-rule:evenodd;fill:rgb(100%,98.799133%,83.499146%);fill-opacity:1;" d="M 80.015625 117.171875 C 81.417969 117.566406 80.527344 114.628906 80.085938 114.679688 C 79.585938 114.742188 79.496094 117.027344 80.015625 117.171875 "/>
<path style=" stroke:none;fill-rule:evenodd;fill:rgb(100%,98.799133%,83.499146%);fill-opacity:1;" d="M 83.175781 113.878906 C 83.800781 114.03125 84.285156 114.3125 84.152344 114.832031 C 83.929688 115.691406 81.125 114.855469 81.140625 114.0625 C 81.148438 113.628906 82.613281 113.746094 83.175781 113.878906 "/>
<path style=" stroke:none;fill-rule:evenodd;fill:rgb(100%,98.799133%,83.499146%);fill-opacity:1;" d="M 78.835938 113.875 C 78.5625 114.535156 77.511719 115.558594 76.65625 115.453125 C 75.84375 115.351563 75.820313 114.539063 76.339844 114.011719 C 76.839844 113.507813 78.386719 113.714844 78.835938 113.875 "/>
<path style=" stroke:none;fill-rule:evenodd;fill:rgb(100%,98.799133%,83.499146%);fill-opacity:1;" d="M 78.1875 110.585938 C 78.996094 110.898438 79.496094 111.972656 79.554688 112.804688 C 79.566406 112.96875 79.21875 112.746094 79.09375 112.714844 C 78.628906 112.59375 77.6875 112.09375 77.273438 111.566406 C 76.695313 110.835938 77.515625 110.324219 78.1875 110.585938 "/>
<path style=" stroke:none;fill-rule:evenodd;fill:rgb(100%,98.799133%,83.499146%);fill-opacity:1;" d="M 81.648438 110.292969 C 80.804688 110.753906 80.414063 111.996094 80.46875 112.910156 C 80.476563 113.09375 80.824219 112.800781 80.960938 112.746094 C 81.449219 112.550781 82.40625 111.871094 82.785156 111.238281 C 83.3125 110.355469 82.34375 109.914063 81.648438 110.292969 "/>
<path style="fill:none;stroke-width:10.7663;stroke-linecap:butt;stroke-linejoin:miter;stroke:rgb(100%,100%,100%);stroke-opacity:1;stroke-miterlimit:2.6131;" d="M -1168.309675 1237.548967 C -1166.803265 1240.800591 -1167.179708 1244.206561 -1169.157195 1245.104555 C -1171.09199 1245.998071 -1173.928962 1244.051341 -1175.435372 1240.799717 C -1176.903569 1237.500925 -1176.522647 1234.137646 -1174.545161 1233.239652 C -1172.567675 1232.341658 -1169.777872 1234.250176 -1168.309675 1237.548967 Z M -1168.309675 1237.548967 " transform="matrix(0.00949388,0.0905061,0.0905062,-0.00949387,0,193)"/>
<path style=" stroke:none;fill-rule:evenodd;fill:rgb(100%,98.799133%,83.499146%);fill-opacity:1;" d="M 98.3125 74.140625 C 97.570313 75.082031 100.078125 75.332031 100.179688 74.980469 C 100.289063 74.585938 98.585938 73.792969 98.3125 74.140625 "/>
<path style=" stroke:none;fill-rule:evenodd;fill:rgb(100%,98.799133%,83.499146%);fill-opacity:1;" d="M 99.890625 77.070313 C 99.609375 77.425781 99.265625 77.644531 98.90625 77.394531 C 98.3125 76.980469 99.699219 75.441406 100.296875 75.699219 C 100.625 75.84375 100.140625 76.75 99.890625 77.070313 "/>
<path style=" stroke:none;fill-rule:evenodd;fill:rgb(100%,98.799133%,83.499146%);fill-opacity:1;" d="M 100.984375 74.605469 C 100.570313 74.191406 100.128906 73.074219 100.476563 72.457031 C 100.8125 71.871094 101.433594 72.113281 101.667969 72.671875 C 101.894531 73.210938 101.25 74.316406 100.984375 74.605469 "/>
<path style=" stroke:none;fill-rule:evenodd;fill:rgb(100%,98.799133%,83.499146%);fill-opacity:1;" d="M 103.667969 74.710938 C 103.171875 75.226563 102.203125 75.265625 101.554688 75.046875 C 101.425781 75.003906 101.703125 74.8125 101.769531 74.726563 C 102.003906 74.410156 102.679688 73.855469 103.210938 73.707031 C 103.949219 73.5 104.078125 74.28125 103.667969 74.710938 "/>
<path style=" stroke:none;fill-rule:evenodd;fill:rgb(100%,98.799133%,83.499146%);fill-opacity:1;" d="M 103.203125 76.851563 C 103.230469 77.050781 103.109375 77.164063 102.941406 77.210938 C 102.425781 77.351563 102 76.847656 101.6875 76.507813 C 101.367188 76.160156 100.90625 75.582031 101.519531 75.789063 C 102.109375 75.984375 103.09375 76.078125 103.203125 76.851563 "/>
<path style="fill:none;stroke-width:13.7384;stroke-linecap:butt;stroke-linejoin:miter;stroke:rgb(100%,100%,100%);stroke-opacity:1;stroke-miterlimit:2.6131;" d="M -734.118545 -1963.375126 C -730.272287 -1964.427018 -726.58121 -1963.388223 -725.961403 -1961.047729 C -725.341597 -1958.707235 -727.990871 -1955.976571 -731.837128 -1954.924678 C -735.726829 -1953.906144 -739.417906 -1954.94494 -740.037712 -1957.285433 C -740.657519 -1959.625927 -738.008245 -1962.356592 -734.118545 -1963.375126 Z M -734.118545 -1963.375126 " transform="matrix(-0.0565651,-0.043435,-0.043435,0.056565,0,193)"/>
<path style=" stroke:none;fill-rule:evenodd;fill:rgb(100%,98.799133%,83.499146%);fill-opacity:1;" d="M 128.019531 116.097656 C 129.019531 115.78125 127.320313 114.367188 127.078125 114.574219 C 126.800781 114.808594 127.648438 116.21875 128.019531 116.097656 "/>
<path style=" stroke:none;fill-rule:evenodd;fill:rgb(100%,98.799133%,83.499146%);fill-opacity:1;" d="M 128.3125 113.203125 C 128.691406 113.082031 129.046875 113.089844 129.183594 113.449219 C 129.410156 114.035156 127.652344 114.476563 127.34375 113.996094 C 127.175781 113.730469 127.972656 113.308594 128.3125 113.203125 "/>
<path style=" stroke:none;fill-rule:evenodd;fill:rgb(100%,98.799133%,83.499146%);fill-opacity:1;" d="M 126.308594 114.453125 C 126.40625 114.957031 126.179688 115.984375 125.621094 116.257813 C 125.09375 116.519531 124.761719 116.042969 124.863281 115.519531 C 124.964844 115.019531 125.976563 114.53125 126.308594 114.453125 "/>
<path style=" stroke:none;fill-rule:evenodd;fill:rgb(100%,98.799133%,83.499146%);fill-opacity:1;" d="M 124.414063 113.058594 C 125.023438 112.929688 125.746094 113.375 126.113281 113.851563 C 126.1875 113.945313 125.886719 113.949219 125.800781 113.980469 C 125.472656 114.09375 124.710938 114.164063 124.253906 114.011719 C 123.617188 113.800781 123.90625 113.171875 124.414063 113.058594 "/>
<path style=" stroke:none;fill-rule:evenodd;fill:rgb(100%,98.799133%,83.499146%);fill-opacity:1;" d="M 125.800781 111.734375 C 125.878906 111.578125 126.019531 111.554688 126.164063 111.601563 C 126.609375 111.753906 126.671875 112.324219 126.730469 112.726563 C 126.792969 113.136719 126.84375 113.78125 126.5 113.332031 C 126.171875 112.902344 125.5 112.347656 125.800781 111.734375 "/>
<path style="fill:none;stroke-width:9.83878;stroke-linecap:butt;stroke-linejoin:miter;stroke:rgb(100%,100%,100%);stroke-opacity:1;stroke-miterlimit:2.6131;" d="M 568.553542 -149.099309 C 568.539684 -152.3943 570.175962 -155.068603 572.137431 -155.037625 C 574.137962 -155.046039 575.718388 -152.346038 575.69302 -149.050881 C 575.667651 -145.755725 574.070435 -143.120813 572.069904 -143.1124 C 570.108435 -143.143377 568.528173 -145.804152 568.553542 -149.099309 Z M 568.553542 -149.099309 " transform="matrix(-0.000418805,-0.0995812,-0.0995812,0.000418805,0,193)"/>
<path style=" stroke:none;fill-rule:evenodd;fill:rgb(100%,98.799133%,83.499146%);fill-opacity:1;" d="M 11.703125 135.875 C 11.308594 137.007813 13.761719 136.421875 13.742188 136.058594 C 13.71875 135.648438 11.847656 135.457031 11.703125 135.875 "/>
<path style=" stroke:none;fill-rule:evenodd;fill:rgb(100%,98.799133%,83.499146%);fill-opacity:1;" d="M 14.148438 138.125 C 14 138.554688 13.746094 138.875 13.328125 138.757813 C 12.632813 138.558594 13.4375 136.652344 14.085938 136.699219 C 14.445313 136.726563 14.285156 137.742188 14.148438 138.125 "/>
<path style=" stroke:none;fill-rule:evenodd;fill:rgb(100%,98.799133%,83.499146%);fill-opacity:1;" d="M 14.382813 135.441406 C 13.851563 135.183594 13.070313 134.273438 13.199219 133.574219 C 13.324219 132.914063 13.988281 132.9375 14.394531 133.390625 C 14.785156 133.824219 14.535156 135.082031 14.382813 135.441406 "/>
<path style=" stroke:none;fill-rule:evenodd;fill:rgb(100%,98.799133%,83.499146%);fill-opacity:1;" d="M 16.949219 134.664063 C 16.652344 135.3125 15.746094 135.667969 15.0625 135.671875 C 14.925781 135.675781 15.128906 135.402344 15.160156 135.296875 C 15.28125 134.921875 15.738281 134.179688 16.191406 133.863281 C 16.820313 133.429688 17.195313 134.125 16.949219 134.664063 "/>
<path style=" stroke:none;fill-rule:evenodd;fill:rgb(100%,98.799133%,83.499146%);fill-opacity:1;" d="M 17.210938 136.839844 C 17.300781 137.019531 17.222656 137.164063 17.082031 137.261719 C 16.640625 137.5625 16.074219 137.230469 15.664063 137.007813 C 15.25 136.785156 14.625 136.390625 15.273438 136.382813 C 15.890625 136.378906 16.855469 136.144531 17.210938 136.839844 "/>
<path style="fill:none;stroke-width:9.81199;stroke-linecap:butt;stroke-linejoin:miter;stroke:rgb(100%,100%,100%);stroke-opacity:1;stroke-miterlimit:2.6131;" d="M -465.705925 -219.568914 C -465.315854 -223.089527 -462.312307 -225.788665 -459.03571 -225.632193 C -455.759113 -225.475722 -453.418686 -222.502759 -453.808756 -219.021263 C -454.198826 -215.50065 -457.163366 -212.801512 -460.439964 -212.918866 C -463.755568 -213.075337 -466.095995 -216.0483 -465.705925 -219.568914 Z M -465.705925 -219.568914 " transform="matrix(-0.100142,0.000000006,0.000000018,0.0998583,0,193)"/>
<path style=" stroke:none;fill-rule:evenodd;fill:rgb(100%,98.799133%,83.499146%);fill-opacity:1;" d="M 46.132813 174.609375 C 47.539063 175.003906 46.644531 172.066406 46.203125 172.121094 C 45.707031 172.179688 45.613281 174.464844 46.132813 174.609375 "/>
<path style=" stroke:none;fill-rule:evenodd;fill:rgb(100%,98.799133%,83.499146%);fill-opacity:1;" d="M 49.292969 171.320313 C 49.921875 171.46875 50.402344 171.753906 50.269531 172.273438 C 50.046875 173.132813 47.246094 172.296875 47.257813 171.503906 C 47.265625 171.066406 48.734375 171.183594 49.292969 171.320313 "/>
<path style=" stroke:none;fill-rule:evenodd;fill:rgb(100%,98.799133%,83.499146%);fill-opacity:1;" d="M 44.953125 171.316406 C 44.679688 171.976563 43.632813 172.996094 42.773438 172.890625 C 41.960938 172.789063 41.941406 171.976563 42.457031 171.453125 C 42.957031 170.945313 44.503906 171.152344 44.953125 171.316406 "/>
<path style=" stroke:none;fill-rule:evenodd;fill:rgb(100%,98.799133%,83.499146%);fill-opacity:1;" d="M 44.304688 168.023438 C 45.117188 168.339844 45.613281 169.414063 45.671875 170.242188 C 45.683594 170.410156 45.339844 170.183594 45.210938 170.152344 C 44.746094 170.035156 43.808594 169.53125 43.390625 169.007813 C 42.8125 168.273438 43.632813 167.765625 44.304688 168.023438 "/>
<path style=" stroke:none;fill-rule:evenodd;fill:rgb(100%,98.799133%,83.499146%);fill-opacity:1;" d="M 47.765625 167.734375 C 46.925781 168.191406 46.53125 169.433594 46.585938 170.351563 C 46.597656 170.53125 46.945313 170.238281 47.078125 170.183594 C 47.570313 169.988281 48.523438 169.308594 48.902344 168.675781 C 49.429688 167.792969 48.464844 167.355469 47.765625 167.734375 "/>
<path style="fill:none;stroke-width:10.2835;stroke-linecap:butt;stroke-linejoin:miter;stroke:rgb(100%,100%,100%);stroke-opacity:1;stroke-miterlimit:2.6131;" d="M 492.620473 -764.716436 C 492.926654 -767.645872 495.433196 -769.945293 498.183058 -769.793963 C 500.930907 -769.683579 502.895227 -767.194802 502.548213 -764.263346 C 502.242032 -761.33391 499.733477 -759.075437 496.985628 -759.18582 C 494.235765 -759.33715 492.27346 -761.78498 492.620473 -764.716436 Z M 492.620473 -764.716436 " transform="matrix(-0.00470648,-0.0954335,-0.0951667,0.00469333,0,193)"/>
<path style=" stroke:none;fill-rule:evenodd;fill:rgb(100%,98.799133%,83.499146%);fill-opacity:1;" d="M 67.625 142.136719 C 67.367188 143.269531 69.667969 142.445313 69.609375 142.097656 C 69.542969 141.703125 67.71875 141.71875 67.625 142.136719 "/>
<path style=" stroke:none;fill-rule:evenodd;fill:rgb(100%,98.799133%,83.499146%);fill-opacity:1;" d="M 70.367188 144.523438 C 70.273438 145.027344 70.066406 145.421875 69.648438 145.335938 C 68.957031 145.195313 69.511719 142.933594 70.144531 142.910156 C 70.488281 142.898438 70.453125 144.074219 70.367188 144.523438 "/>
<path style=" stroke:none;fill-rule:evenodd;fill:rgb(100%,98.799133%,83.499146%);fill-opacity:1;" d="M 70.203125 141.070313 C 69.664063 140.878906 68.8125 140.085938 68.863281 139.398438 C 68.910156 138.746094 69.554688 138.699219 69.996094 139.089844 C 70.417969 139.46875 70.3125 140.707031 70.203125 141.070313 "/>
<path style=" stroke:none;fill-rule:evenodd;fill:rgb(100%,98.799133%,83.499146%);fill-opacity:1;" d="M 72.792969 140.425781 C 72.578125 141.082031 71.742188 141.519531 71.082031 141.601563 C 70.953125 141.617188 71.117188 141.332031 71.136719 141.230469 C 71.214844 140.855469 71.574219 140.085938 71.976563 139.734375 C 72.535156 139.25 72.972656 139.878906 72.792969 140.425781 "/>
<path style=" stroke:none;fill-rule:evenodd;fill:rgb(100%,98.799133%,83.499146%);fill-opacity:1;" d="M 73.160156 143.167969 C 72.765625 142.515625 71.761719 142.253906 71.03125 142.332031 C 70.886719 142.347656 71.136719 142.613281 71.183594 142.714844 C 71.359375 143.097656 71.9375 143.832031 72.457031 144.109375 C 73.179688 144.492188 73.492188 143.707031 73.160156 143.167969 "/>
<path style="fill:none;stroke-width:9.81191;stroke-linecap:butt;stroke-linejoin:miter;stroke:rgb(100%,100%,100%);stroke-opacity:1;stroke-miterlimit:2.6131;" d="M -832.147025 -221.289399 C -831.873973 -223.871175 -829.650546 -225.905301 -827.232081 -225.787948 C -824.813616 -225.670595 -823.058278 -223.479997 -823.33133 -220.898222 C -823.64339 -218.277328 -825.827809 -216.28232 -828.285282 -216.399673 C -830.703747 -216.517026 -832.459085 -218.707623 -832.147025 -221.289399 Z M -832.147025 -221.289399 " transform="matrix(-0.100141,0.000000008,0.000000018,0.0998586,0,193)"/>
<path style=" stroke:none;fill-rule:evenodd;fill:rgb(100%,98.799133%,83.499146%);fill-opacity:1;" d="M 82.960938 173.519531 C 84 173.808594 83.339844 171.636719 83.015625 171.675781 C 82.644531 171.71875 82.578125 173.410156 82.960938 173.519531 "/>
<path style=" stroke:none;fill-rule:evenodd;fill:rgb(100%,98.799133%,83.499146%);fill-opacity:1;" d="M 85.300781 171.082031 C 85.765625 171.195313 86.121094 171.402344 86.023438 171.789063 C 85.859375 172.421875 83.785156 171.804688 83.792969 171.21875 C 83.800781 170.894531 84.886719 170.984375 85.300781 171.082031 "/>
<path style=" stroke:none;fill-rule:evenodd;fill:rgb(100%,98.799133%,83.499146%);fill-opacity:1;" d="M 82.089844 171.078125 C 81.886719 171.570313 81.109375 172.324219 80.476563 172.246094 C 79.871094 172.171875 79.859375 171.570313 80.242188 171.179688 C 80.613281 170.804688 81.757813 170.960938 82.089844 171.078125 "/>
<path style=" stroke:none;fill-rule:evenodd;fill:rgb(100%,98.799133%,83.499146%);fill-opacity:1;" d="M 81.609375 168.644531 C 82.210938 168.875 82.578125 169.671875 82.621094 170.285156 C 82.628906 170.410156 82.371094 170.242188 82.28125 170.21875 C 81.933594 170.132813 81.238281 169.761719 80.933594 169.371094 C 80.503906 168.828125 81.109375 168.453125 81.609375 168.644531 "/>
<path style=" stroke:none;fill-rule:evenodd;fill:rgb(100%,98.799133%,83.499146%);fill-opacity:1;" d="M 84.171875 168.429688 C 83.546875 168.769531 83.257813 169.6875 83.296875 170.367188 C 83.304688 170.5 83.5625 170.28125 83.660156 170.242188 C 84.023438 170.097656 84.730469 169.59375 85.011719 169.125 C 85.402344 168.472656 84.6875 168.148438 84.171875 168.429688 "/>
<path style="fill:none;stroke-width:13.2591;stroke-linecap:butt;stroke-linejoin:miter;stroke:rgb(100%,100%,100%);stroke-opacity:1;stroke-miterlimit:2.6131;" d="M -125.44472 -1639.352059 C -125.011074 -1643.168672 -121.774872 -1646.078666 -118.234495 -1645.921595 C -114.740726 -1645.739832 -112.170392 -1642.55806 -112.62866 -1638.788185 C -113.015698 -1634.996262 -116.251899 -1632.086268 -119.792277 -1632.24334 C -123.332654 -1632.400411 -125.856379 -1635.606874 -125.44472 -1639.352059 Z M -125.44472 -1639.352059 " transform="matrix(-0.0346147,-0.0655253,-0.0653421,0.0345179,0,193)"/>
<path style=" stroke:none;fill-rule:evenodd;fill:rgb(100%,98.799133%,83.499146%);fill-opacity:1;" d="M 108.785156 145.59375 C 109.03125 146.726563 110.765625 145.007813 110.566406 144.714844 C 110.335938 144.386719 108.691406 145.171875 108.785156 145.59375 "/>
<path style=" stroke:none;fill-rule:evenodd;fill:rgb(100%,98.799133%,83.499146%);fill-opacity:1;" d="M 112.277344 146.59375 C 112.40625 147.089844 112.386719 147.535156 111.972656 147.636719 C 111.285156 147.800781 110.828125 145.515625 111.394531 145.226563 C 111.703125 145.070313 112.164063 146.148438 112.277344 146.59375 "/>
<path style=" stroke:none;fill-rule:evenodd;fill:rgb(100%,98.799133%,83.499146%);fill-opacity:1;" d="M 110.667969 143.535156 C 110.097656 143.589844 108.992188 143.230469 108.746094 142.585938 C 108.515625 141.976563 109.078125 141.660156 109.640625 141.828125 C 110.183594 141.992188 110.613281 143.160156 110.667969 143.535156 "/>
<path style=" stroke:none;fill-rule:evenodd;fill:rgb(100%,98.799133%,83.499146%);fill-opacity:1;" d="M 112.742188 141.855469 C 112.824219 142.542969 112.253906 143.292969 111.6875 143.644531 C 111.578125 143.714844 111.605469 143.386719 111.582031 143.285156 C 111.492188 142.914063 111.496094 142.0625 111.710938 141.574219 C 112.011719 140.898438 112.675781 141.285156 112.742188 141.855469 "/>
<path style=" stroke:none;fill-rule:evenodd;fill:rgb(100%,98.799133%,83.499146%);fill-opacity:1;" d="M 113.730469 143.824219 C 113.234375 143.519531 112.4375 143.65625 111.949219 143.929688 C 111.851563 143.980469 112.113281 144.082031 112.179688 144.132813 C 112.433594 144.332031 113.085938 144.632813 113.542969 144.65625 C 114.183594 144.6875 114.144531 144.078125 113.730469 143.824219 "/>
<path style="fill:none;stroke-width:9.81242;stroke-linecap:butt;stroke-linejoin:miter;stroke:rgb(100%,100%,100%);stroke-opacity:1;stroke-miterlimit:2.6131;" d="M -1375.806076 -226.653049 C -1375.455016 -229.743418 -1372.841566 -232.168771 -1369.955069 -232.012297 C -1367.068571 -231.894942 -1364.962208 -229.273996 -1365.313268 -226.183627 C -1365.664328 -223.093258 -1368.277778 -220.707023 -1371.203282 -220.824379 C -1374.089779 -220.980853 -1376.157136 -223.56268 -1375.806076 -226.653049 Z M -1375.806076 -226.653049 " transform="matrix(-0.100143,0.000000007,0.000000018,0.0998566,0,193)"/>
<path style=" stroke:none;fill-rule:evenodd;fill:rgb(100%,98.799133%,83.499146%);fill-opacity:1;" d="M 137.335938 173.480469 C 138.574219 173.828125 137.785156 171.238281 137.398438 171.285156 C 136.957031 171.339844 136.878906 173.351563 137.335938 173.480469 "/>
<path style=" stroke:none;fill-rule:evenodd;fill:rgb(100%,98.799133%,83.499146%);fill-opacity:1;" d="M 140.121094 170.582031 C 140.671875 170.710938 141.097656 170.960938 140.980469 171.417969 C 140.785156 172.175781 138.316406 171.441406 138.328125 170.742188 C 138.332031 170.359375 139.625 170.460938 140.121094 170.582031 "/>
<path style=" stroke:none;fill-rule:evenodd;fill:rgb(100%,98.799133%,83.499146%);fill-opacity:1;" d="M 136.296875 170.578125 C 136.054688 171.160156 135.132813 172.058594 134.378906 171.964844 C 133.660156 171.875 133.640625 171.160156 134.097656 170.695313 C 134.539063 170.25 135.902344 170.433594 136.296875 170.578125 "/>
<path style=" stroke:none;fill-rule:evenodd;fill:rgb(100%,98.799133%,83.499146%);fill-opacity:1;" d="M 135.726563 167.679688 C 136.441406 167.953125 136.878906 168.902344 136.929688 169.632813 C 136.941406 169.777344 136.636719 169.582031 136.523438 169.550781 C 136.113281 169.449219 135.285156 169.007813 134.921875 168.542969 C 134.410156 167.898438 135.132813 167.449219 135.726563 167.679688 "/>
<path style=" stroke:none;fill-rule:evenodd;fill:rgb(100%,98.799133%,83.499146%);fill-opacity:1;" d="M 138.773438 167.421875 C 138.03125 167.824219 137.6875 168.917969 137.734375 169.726563 C 137.742188 169.886719 138.050781 169.628906 138.167969 169.582031 C 138.601563 169.410156 139.441406 168.808594 139.777344 168.25 C 140.238281 167.476563 139.386719 167.085938 138.773438 167.421875 "/>
<path style="fill:none;stroke-width:12.65;stroke-linecap:butt;stroke-linejoin:miter;stroke:rgb(100%,100%,100%);stroke-opacity:1;stroke-miterlimit:2.6131;" d="M -2177.430663 -135.676164 C -2176.795631 -139.25981 -2173.702764 -141.972711 -2170.524446 -141.746189 C -2167.316736 -141.454773 -2165.272622 -138.31693 -2165.954583 -134.750937 C -2166.607152 -131.12005 -2169.700019 -128.407149 -2172.8608 -128.680912 C -2176.021582 -128.954674 -2178.065695 -132.092518 -2177.430663 -135.676164 Z M -2177.430663 -135.676164 " transform="matrix(-0.0730385,0.0272936,-0.0271129,-0.072555,0,193)"/>
<path style=" stroke:none;fill-rule:evenodd;fill:rgb(100%,98.799133%,83.499146%);fill-opacity:1;" d="M 161.566406 140.816406 C 162.484375 140.175781 162.5 142.648438 162.171875 142.714844 C 161.800781 142.789063 161.226563 141.050781 161.566406 140.816406 "/>
<path style=" stroke:none;fill-rule:evenodd;fill:rgb(100%,98.799133%,83.499146%);fill-opacity:1;" d="M 164.5625 142.589844 C 164.980469 142.324219 165.261719 141.992188 165.050781 141.621094 C 164.699219 141.015625 162.878906 142.328125 163.066406 142.9375 C 163.167969 143.269531 164.191406 142.828125 164.5625 142.589844 "/>
<path style=" stroke:none;fill-rule:evenodd;fill:rgb(100%,98.799133%,83.499146%);fill-opacity:1;" d="M 161.457031 143.632813 C 161.113281 143.191406 160.136719 142.65625 159.546875 142.945313 C 158.984375 143.21875 159.152344 143.847656 159.640625 144.128906 C 160.113281 144.398438 161.171875 143.867188 161.457031 143.632813 "/>
<path style=" stroke:none;fill-rule:evenodd;fill:rgb(100%,98.799133%,83.499146%);fill-opacity:1;" d="M 161.726563 146.320313 C 162.238281 145.882813 162.355469 144.9375 162.210938 144.285156 C 162.183594 144.15625 161.984375 144.410156 161.902344 144.464844 C 161.597656 144.667969 161.035156 145.28125 160.855469 145.785156 C 160.605469 146.484375 161.304688 146.679688 161.726563 146.320313 "/>
<path style=" stroke:none;fill-rule:evenodd;fill:rgb(100%,98.799133%,83.499146%);fill-opacity:1;" d="M 164.269531 145.714844 C 163.566406 145.5625 163.007813 144.703125 162.84375 143.984375 C 162.808594 143.839844 163.121094 143.984375 163.230469 143.992188 C 163.625 144.027344 164.460938 144.320313 164.875 144.714844 C 165.449219 145.269531 164.855469 145.839844 164.269531 145.714844 "/>
</g>
</svg>
