<?xml version="1.0" encoding="utf-8"?>
<svg version="1.1" xmlns="http://www.w3.org/2000/svg" xmlns:xlink="http://www.w3.org/1999/xlink" viewBox="0 0 170 170">
	<path style="fill:#18A497;" d="M28.3,0h117.2c15.6,0,28.2,12.6,28.2,28.2c0,0,0,0,0,0.1v117.2c0,15.6-12.6,28.2-28.2,28.2c0,0,0,0-0.1,0H46.3
		l-0.3-74.8h0v-0.5C45.9,69.9,68.4,47,96.3,47c16.7,0,30.2,13.8,30.2,30.8s-13.5,30.8-30.2,30.8c-5.6,0-10.1-4.6-10.1-10.3
		c0,0,0,0,0,0c0-5.7,4.5-10.3,10.1-10.3s10.1-4.6,10.1-10.3s-4.5-10.3-10.1-10.3c-16.7,0-30.2,13.8-30.2,30.8s13.5,30.8,30.2,30.8
		c27.9,0,50.4-22.9,50.4-51.3s-22.5-51.3-50.4-51.3c-39,0-70.6,32.1-70.6,71.8v0.6h-0.2l0.3,74.6C11.3,172.4,0,160.1,0,145.4V28.2
		C0,12.7,12.6,0,28.3,0C28.2,0,28.2,0,28.3,0L28.3,0z"/>
</svg>