<?xml version="1.0" encoding="UTF-8" standalone="no"?>
<!-- Created with Inkscape (http://www.inkscape.org/) -->
<svg xmlns:dc="http://purl.org/dc/elements/1.1/" xmlns:cc="http://creativecommons.org/ns#" xmlns:rdf="http://www.w3.org/1999/02/22-rdf-syntax-ns#" xmlns:svg="http://www.w3.org/2000/svg" xmlns="http://www.w3.org/2000/svg" xmlns:sodipodi="http://sodipodi.sourceforge.net/DTD/sodipodi-0.dtd" xmlns:inkscape="http://www.inkscape.org/namespaces/inkscape" id="svg3039" version="1.1" inkscape:version="0.48pre1 r9509" width="128" height="128" sodipodi:docname="Okey.svg">
  <metadata id="metadata3045">
    <rdf:RDF>
      <cc:Work rdf:about="">
        <dc:format>image/svg+xml</dc:format>
        <dc:type rdf:resource="http://purl.org/dc/dcmitype/StillImage"/>
        <dc:title/>
      </cc:Work>
    </rdf:RDF>
  </metadata>
  <defs id="defs3043"/>
  <sodipodi:namedview pagecolor="#ffffff" bordercolor="#666666" borderopacity="1" objecttolerance="10" gridtolerance="10" guidetolerance="10" inkscape:pageopacity="0" inkscape:pageshadow="2" inkscape:window-width="1920" inkscape:window-height="1152" id="namedview3041" showgrid="false" showguides="true" inkscape:guide-bbox="true" inkscape:zoom="4.1688" inkscape:cx="55.144839" inkscape:cy="55.225208" inkscape:window-x="0" inkscape:window-y="0" inkscape:window-maximized="1" inkscape:current-layer="g3889"/>
  <g id="g3889" transform="translate(-7.3219463,5.3029718)">
    <path style="fill:#634b4a;fill-opacity:1;fill-rule:nonzero;stroke:#ffffff;stroke-width:0;stroke-linecap:round;stroke-linejoin:round;stroke-miterlimit:4;stroke-opacity:1;stroke-dasharray:none;stroke-dashoffset:0" d="m 50.235652,103.60517 c -1.906564,-2.50073 -3.172953,-5.548302 -3.821002,-8.625428 -1.180877,-5.607154 0.148991,-9.595592 0.03222,-17.190428 -1.906071,-0.787091 -2.838905,-1.764894 -3.955223,-2.981278 -0.884334,-0.963605 -1.617079,-2.102594 -2.084735,-3.324019 -0.52692,-1.376211 -0.870933,-2.887402 -0.752982,-4.35631 0.112346,-1.39912 0.677244,-3.007601 1.370117,-3.981734 C 37.438297,59.41087 31.558475,48.403801 29.104271,40.115381 28.092584,36.698677 27.420336,32.982872 28.056712,29.47682 c 0.89599,-4.936373 3.167542,-9.888399 6.644891,-13.504835 3.914702,-4.071282 9.347836,-7.026342 14.898445,-8.0708338 8.86509,-1.668198 18.930635,-0.9547687 26.852702,3.3595748 5.698829,3.103572 10.864887,8.63874 12.509762,14.915937 3.214397,12.266829 -3.267049,28.338006 -7.010301,37.391478 0.60037,1.899429 0.620431,3.38748 0.01315,5.183317 1.208367,-1.970228 7.448969,-2.043981 10.807123,-0.718371 3.470412,1.369923 5.909446,4.870649 7.649956,8.17081 2.17144,4.117239 2.34347,7.094132 3.02247,13.633272 5.42298,-0.300906 7.33482,1.216672 9.08145,4.030561 2.06699,3.330006 1.59399,8.43108 -0.49443,11.74769 -1.58725,2.52071 -4.97363,3.58766 -7.88938,4.19734 -4.446785,0.92981 -12.185772,-0.13235 -13.588819,-1.04407 -2.343448,-1.4158 -3.403736,-4.7791 -4.067365,-7.23373 -2.263168,2.43858 -5.104162,4.86067 -8.243273,6.323 -3.381209,1.57511 -7.195896,2.2548 -10.926432,2.41557 -3.575074,0.15407 -7.355697,0.0148 -10.638943,-1.40512 -2.545121,-1.10066 -4.760861,-3.05809 -6.442066,-5.26324 z" id="path3866" inkscape:connector-curvature="0" sodipodi:nodetypes="aacaaacaaaaaaccaacaaaccaaaa"/>
    <path sodipodi:nodetypes="acacaaaaacaaaaacccacaaacaaaacaccaaaaa" inkscape:connector-curvature="0" id="path3863" d="m 51.447814,94.515388 c -1.514142,-5.09093 -0.696851,-11.398387 -0.364306,-15.929816 1.837187,0.362608 4.384691,0.160309 6.429883,-0.502205 2.971261,-0.962502 6.936802,-2.317131 7.994865,-4.886242 0.381974,-1.027712 0.557806,-1.864164 0.104922,-2.60642 -0.311942,-0.511258 -1.030618,-0.750884 -1.629497,-0.756951 -2.700305,-0.02736 -4.748762,2.834608 -7.414932,3.263485 -2.839559,0.456768 -6.043376,0.515108 -8.588769,-0.823814 -1.772682,-0.932462 -3.552166,-2.624928 -3.861535,-4.603862 -0.249517,-1.596081 0.386595,-3.498283 1.832592,-4.486557 -4.726904,-5.484787 -13.141312,-20.294897 -13.16539,-31.752875 -0.0071,-3.40272 1.69191,-6.831933 3.870112,-9.446124 2.762842,-3.315852 6.757213,-5.776326 10.898969,-6.99042 6.658283,-1.951778 14.274678,-2.315504 20.815367,0 5.483013,1.94107 11.409004,5.575734 13.562728,10.978757 4.737254,11.884293 -2.351021,25.218576 -5.039358,38.048742 0.831369,2.045154 1.034472,3.85415 0.871002,4.787913 -0.248958,4.911899 -5.068031,6.572419 -5.226006,8.83444 -0.03331,0.947448 0.551479,2.254534 1.483812,2.426358 2.86379,0.527782 4.938621,-3.718945 6.915125,-5.338509 1.803532,-1.43802 3.22077,-1.559094 4.965223,-1.753926 1.411144,-0.157606 2.902405,-0.0044 4.230576,0.497715 1.396754,0.528052 2.784182,1.358035 3.682571,2.550788 3.877796,5.148386 5.606511,12.526529 6.194182,18.317225 0.70792,-0.06614 1.91064,-0.416566 2.87093,-0.337292 1.18965,0.09821 2.42599,0.365522 3.43995,0.99543 1.01532,0.630752 1.97815,1.535643 2.41977,2.646359 0.52442,1.318958 0.7856,3.032463 0.0689,4.257613 -1.16681,1.99458 -3.05963,3.10585 -6.097,3.29918 -3.376963,0.20511 -6.162001,0.22724 -9.011751,-0.75555 -0.837678,-0.28889 -1.687898,-0.80399 -2.222756,-1.45802 -1.113795,-0.98976 -2.750113,-9.103964 -3.761746,-12.095727 -1.363134,2.61549 -3.196623,6.095439 -5.534485,8.561731 -1.40976,1.487206 -3.110153,2.763726 -4.977148,3.608436 -2.944479,1.33221 -6.22553,2.06802 -9.45658,2.13909 -3.68665,0.0811 -7.837171,0.10902 -10.886904,-1.96392 -2.83065,-1.92403 -4.437597,-5.444417 -5.413316,-8.725032 z" style="fill:#d7a9a6;fill-opacity:1;fill-rule:nonzero;stroke:#ffffff;stroke-width:0;stroke-linecap:round;stroke-linejoin:round;stroke-miterlimit:4;stroke-opacity:1;stroke-dasharray:none;stroke-dashoffset:0"/>
    <path sodipodi:nodetypes="aaaaaasa" inkscape:connector-curvature="0" id="path3852" d="M 46.690325,63.043961 C 45.467787,62.77346 44.491959,61.706377 43.766309,60.685984 39.145312,54.188031 35.30593,46.132345 35.694893,38.168319 c 0.09049,-1.852769 0.761726,-4.122685 2.3793,-5.030646 1.267975,-0.711727 3.139655,-0.362301 4.337703,0.461711 2.405155,1.654256 3.191157,4.99007 3.980639,7.800417 1.927201,6.860325 2.560837,17.211736 1.620164,21.316157 -0.12059,0.526168 -0.87895,0.426116 -1.322374,0.328003 z" style="fill:#ffffff;fill-opacity:1;fill-rule:nonzero;stroke:#ffffff;stroke-width:0;stroke-linecap:round;stroke-linejoin:round;stroke-miterlimit:4;stroke-opacity:1;stroke-dasharray:none;stroke-dashoffset:0"/>
    <path sodipodi:nodetypes="aaaaaaaaa" inkscape:connector-curvature="0" id="path3854" d="m 56.13296,62.614825 c -1.124067,-0.319101 -1.743889,-1.605008 -2.340299,-2.609819 -2.819246,-4.749768 -4.836272,-10.140379 -5.531126,-15.619942 -0.353689,-2.78916 -0.489648,-5.874333 0.741769,-8.401806 1.054886,-2.165145 2.920303,-4.436105 5.276242,-4.936297 3.10942,-0.660165 6.809254,0.830016 9.010096,3.123617 2.085239,2.173125 2.674576,5.640712 2.604797,8.651662 -0.154565,6.669419 -1.81259,14.283498 -6.651349,18.876041 -0.783918,0.744029 -2.070423,1.211697 -3.11013,0.916544 z" style="fill:#ffffff;fill-opacity:1;fill-rule:nonzero;stroke:#ffffff;stroke-width:0;stroke-linecap:round;stroke-linejoin:round;stroke-miterlimit:4;stroke-opacity:1;stroke-dasharray:none;stroke-dashoffset:0"/>
    <path sodipodi:nodetypes="aaaaa" inkscape:connector-curvature="0" id="path3053" d="m 43.893012,26.96817 c -0.01836,-1.837424 -3.114304,-2.323389 -4.948814,-2.428459 -1.979529,-0.113376 -5.559183,0.01134 -5.604286,1.993606 -0.05212,2.290314 4.075109,2.697367 6.363753,2.59556 1.569692,-0.06983 4.205049,-0.589541 4.189347,-2.160707 z" style="fill:#000000;fill-opacity:1;fill-rule:nonzero;stroke:#ffffff;stroke-width:0;stroke-linecap:round;stroke-linejoin:round;stroke-miterlimit:4;stroke-opacity:1;stroke-dasharray:none;stroke-dashoffset:0"/>
    <path sodipodi:nodetypes="caaaac" inkscape:connector-curvature="0" id="path3049" d="m 54.154611,53.295581 c -1.79622,-3.733083 -3.290868,-10.215674 -0.199143,-13.275997 0.848182,-0.839567 2.680911,-0.637563 3.516108,0.215814 2.765073,2.825261 2.010989,8.198627 0.831019,12.028738 -0.290422,0.942691 -0.885239,2.096248 -1.822921,2.292591 -0.857751,0.179606 -1.688811,-0.248811 -2.325063,-1.261146 z" style="fill:#000000;fill-opacity:1;fill-rule:nonzero;stroke:#ffffff;stroke-width:0;stroke-linecap:round;stroke-linejoin:round;stroke-miterlimit:4;stroke-opacity:1;stroke-dasharray:none;stroke-dashoffset:0"/>
    <path sodipodi:nodetypes="saaas" inkscape:connector-curvature="0" id="path3055" d="m 47.522405,26.410542 c -0.06495,-2.290884 7.431909,-3.876298 11.492458,-4.089721 2.563323,-0.134729 7.270512,-0.750858 7.485577,1.806979 0.234578,2.789927 -4.955702,2.868972 -7.721054,3.306626 -3.721498,0.588979 -11.197875,1.060748 -11.256981,-1.023884 z" style="fill:#000000;fill-opacity:1;fill-rule:nonzero;stroke:#ffffff;stroke-width:0;stroke-linecap:round;stroke-linejoin:round;stroke-miterlimit:4;stroke-opacity:1;stroke-dasharray:none;stroke-dashoffset:0"/>
    <path sodipodi:nodetypes="aaaasa" inkscape:connector-curvature="0" id="path3051" d="m 38.066769,47.210273 c -0.542895,-2.264852 -1.170956,-5.478409 0.626988,-6.958844 0.960411,-0.790807 2.764259,-0.420837 3.712405,0.384635 2.069157,1.757796 2.054728,5.145682 2.137985,7.859411 0.07093,2.311814 -0.0516,6.672314 -1.407468,6.794457 -1.861283,0.167673 -4.328756,-4.987715 -5.06991,-8.079659 z" style="fill:#000000;fill-opacity:1;fill-rule:nonzero;stroke:#ffffff;stroke-width:0;stroke-linecap:round;stroke-linejoin:round;stroke-miterlimit:4;stroke-opacity:1;stroke-dasharray:none;stroke-dashoffset:0"/>
  </g>
</svg>